<svg xmlns="http://www.w3.org/2000/svg" width="239.87" height="136.11"><path d="M49.933 39.136c.04-.286.053-.586.053-.898 0-.17 0-.352-.013-.573 2.653-.04 4.986-1.914 4.986-4.062 0-1.093-.733-1.913-1.146-2.408.093-.026.186-.04.28-.065.386.325 1.493 1.497 1.493 2.981 0 2.578-2.64 4.973-5.653 5.025m-2.68-8.97c-.04-.299-.16-.56-.333-.78.013-.26.12-.508.56-.3-.24.234-.053.65-.053.65s.48-.22.373-.533c.72.17.2 1.107-.547.964m-.613 1.314a2.636 2.636 0 0 0-.56-1.08c-.226-.26-.613-.586-1.146-.586-.227 0-.627.104-.894.208-.093-.169-.28-.572-.28-.755 0-.195.334-.377.96-.377 1.374 0 2.2.599 2.2 1.627 0 .351-.147.677-.28.963m3.533 17.314c.16 0 .24.026.333.065.387 1.055 1.92 3.034 1.987 3.125l.013.013h.014c.386-.065 1.333-.209 2.133-.209h.026c.08 0 .187 0 .24.066.054.052.08.143.08.26 0 .195-.08.534-.186.677-.28-.3-.734-.443-1.467-.443-.213 0-.467.065-.613.104l-.053.013-.067.013.413.417c.653.625 1.213 1.172 1.213 1.536 0 .221-.213.508-.413.638-.053-.664-.733-1.562-1.413-2.057l-.053-.039-.014.234c0 .157-.013.39-.013.651 0 1.263-.133 1.458-.587 1.458-.066 0-.173-.026-.24-.039.254-.312.347-.716.347-1.419v-.599c0-.286.027-.494.053-.676l.014-.092-.067-.013c-.213-.026-.6-.078-.907-.078-.64 0-1.08.052-1.386.339-.213-.156-.427-.443-.427-.625 0-.26.174-.274.387-.274.12 0 .226.014.36.027.28.039.693.104 1.546.104h.054l-.014-.052c-.213-.612-.813-1.484-1.76-2.617.08-.3.16-.508.467-.508m-8.226 3.125-.026.052h.053c.853 0 1.266-.065 1.546-.104.147-.013.254-.027.36-.027.227 0 .387.014.387.274 0 .182-.213.469-.413.625-.32-.287-.76-.339-1.387-.339-.306 0-.693.052-.906.078h-.04l-.027.013.013.092c.014.182.054.39.054.676l-.014.274v.325c0 .703.107 1.107.36 1.42-.066.012-.173.038-.24.038-.453 0-.586-.195-.586-1.458 0-.26-.014-.494-.027-.65l-.013-.235-.054.04c-.666.494-1.36 1.392-1.4 2.056-.2-.13-.413-.417-.413-.638 0-.364.56-.911 1.2-1.536l.427-.417-.134-.026a2.368 2.368 0 0 0-.613-.104c-.72 0-1.173.143-1.466.443-.094-.143-.174-.482-.174-.677 0-.117.014-.208.067-.26.067-.066.16-.066.253-.066h.014c.8 0 1.76.144 2.133.209h.026l.014-.013c.066-.091 1.586-2.07 1.986-3.125a.75.75 0 0 1 .333-.065c.294 0 .374.209.467.508-.96 1.133-1.546 2.005-1.76 2.617M37.814 34.11c0-1.471 1.107-2.656 1.494-2.981.093.026.186.039.28.065-.414.495-1.134 1.315-1.134 2.408 0 2.174 2.373 4.062 5.066 4.062-.026.182-.026.377-.026.573 0 .325.013.625.04.91-3.04-.025-5.72-2.433-5.72-5.037m20.412 4.582c1.36 2.11 2.426 2.07 4.04 2.07-1.334-1.002-2.214-2.278-2.627-2.929l-2.493-3.892a5.804 5.804 0 0 0-1.84-3.177c.32-.117.587-.234.747-.351-1.627 0-3.24-.807-4.133-.807-.56 0-.934.325-.934.768.04.494.56.99 1.507.99.213 0 .493-.027.8-.079.52.703.933 1.34.933 2.252 0 1.706-2.08 3.033-4.2 3.033-.12 0-.226 0-.346-.013-.187-.416-.827-1.132-.827-1.94 0-1.353.907-2.46.907-3.8 0-.834-.413-1.354-.573-1.563.253-.234.533-.533.6-.729-.147.065-.32.078-.587.078-1.013 0-1.827-.26-2.64-.26-.453 0-.573.143-.573.273 0 .04 0 .092.013.118a3.39 3.39 0 0 0-.52-.144 4.713 4.713 0 0 0-.76-.065c-.973 0-1.32.404-1.32.742 0 .287.227.82.494 1.224.386-.195.84-.312 1.04-.312.52 0 .986.481 1.226 1.054-.346.04-.413.052-.76.052-.96 0-1.6-.338-1.733-.338-.013 0-.04.013-.04.026 0 .13.267.481.8.664.707.26 1.746.364 1.92.39 0 .026-.174.352-.373.417a.19.19 0 0 1-.12 0c-.734-.144-.934-.196-1.867-.547-.027-.013-.04.013-.04.039 0 .351.947 1.146 1.8 1.445-.72.885-1.6 1.796-2.013 3.176-.12.013-.24.013-.36.013-2.107 0-4.2-1.327-4.2-3.033 0-.911.427-1.549.947-2.252.293.052.573.078.786.078.96 0 1.48-.495 1.52-.99 0-.442-.373-.767-.946-.767-.88 0-2.493.807-4.133.807.173.117.44.234.76.351a5.725 5.725 0 0 0-1.84 3.177l-2.493 3.892c-.414.651-1.307 1.927-2.64 2.93 1.613 0 2.68.038 4.053-2.07l1.28-2.005c.093.26.2.52.346.768l-2.546 3.97c-.427.651-1.307 1.927-2.64 2.93 1.613 0 2.68.038 4.053-2.07l2.187-3.424c.16.169.333.338.506.494l-3.08 4.83c-.426.664-1.293 1.927-2.64 2.929 1.614 0 2.68.039 4.04-2.07l3.013-4.7c.2.118.4.235.614.352l-3.68 5.741c-.413.65-1.293 1.914-2.626 2.93 1.613 0 2.68.038 4.04-2.07l3.786-5.924c.226.091.453.17.68.247l-4.28 6.679c-.413.65-1.307 1.94-2.64 2.929 1.613 0 2.693.039 4.053-2.07l4.56-7.121c.04 0 .093.013.133.026.12.377.213.742.213 1.093 0 2.24-1.506 4.218-3.306 5.741.107.052.307.066.493.066.374 0 .614-.014.787-.04-.413.925-1.32 2.122-1.773 2.747a13.506 13.506 0 0 0-2.013-.195c-.587 0-.654.338-.654.638 0 .52.254.937.547 1.171.107-.26.32-.624 1.413-.624.027 0 .053 0 .107.013-.32.338-1.307 1.132-1.307 1.757 0 .417.467 1.055 1.08 1.055-.027-.144-.027-.26-.027-.352 0-.52.467-1.12.854-1.536v.26c0 1.211.106 1.77.906 1.77.387 0 .654-.208.734-.273-.507-.455-.534-.82-.534-1.497v-.599c.014-.156 0-.351-.026-.507.293-.04.4-.04.613-.04 0 0 1.12-.077 1.4.482.293-.273.746-.65.746-1.08 0-.274-.146-.586-.72-.586-.213 0-.906.13-1.48.13.16-.338.84-1.315 1.44-2.03.094.273.227.572.547.82.04-.456.307-1.914 1.04-2.76.093.573.2 1.158.2 2.395 0 3.02-.733 5.246-2.307 5.663.2.351.64.664 1.08.664.587 0 .894-.638 1.214-1.237.173.443.626 1.523 1.093 1.523.453 0 .92-1.08 1.08-1.523.32.599.64 1.237 1.213 1.237.453 0 .88-.313 1.093-.664-1.573-.417-2.32-2.643-2.32-5.663 0-1.237.107-1.822.2-2.395.734.846 1.014 2.304 1.054 2.76.306-.248.453-.547.546-.82.587.715 1.28 1.692 1.427 2.03-.574 0-1.254-.13-1.48-.13-.573 0-.707.312-.707.586 0 .43.44.807.747 1.08.266-.56 1.386-.481 1.386-.481.214 0 .334 0 .614.039-.027.156-.027.351-.027.507v.6c0 .676-.027 1.04-.533 1.496.093.065.36.274.746.274.787 0 .894-.56.894-1.77 0-.144.013-.13 0-.261.4.416.853 1.015.853 1.536 0 .091.013.208-.027.352.613 0 1.093-.638 1.093-1.055 0-.625-1-1.419-1.32-1.757.054-.013.094-.013.107-.013 1.093 0 1.32.364 1.427.624.293-.234.533-.65.533-1.171 0-.3-.067-.638-.653-.638-.56 0-1.414.091-2.013.195-.454-.625-1.347-1.822-1.774-2.747.174.026.414.04.787.04.187 0 .387-.014.507-.066-1.814-1.523-3.307-3.501-3.307-5.74 0-.352.08-.717.2-1.094.054-.013.094-.026.147-.026l4.546 7.12c1.373 2.11 2.44 2.07 4.053 2.07-1.333-.989-2.226-2.278-2.64-2.928l-4.28-6.679c.24-.078.467-.156.694-.247l3.773 5.923c1.373 2.11 2.44 2.07 4.053 2.07-1.347-1.015-2.213-2.278-2.64-2.929l-3.68-5.74c.214-.118.414-.235.614-.352l3.013 4.7c1.36 2.108 2.44 2.069 4.053 2.069-1.347-1.002-2.213-2.265-2.64-2.93l-3.093-4.829c.187-.156.36-.325.52-.494l2.186 3.423c1.36 2.11 2.44 2.07 4.053 2.07-1.346-1.002-2.226-2.278-2.64-2.929l-2.546-3.97c.133-.248.253-.508.347-.768zM70.366 29.646h4.666v26.036h-4.666z"/><path fill="red" d="M70.366 55.682h4.666v26.036h-4.666z"/><path fill="#fc0" d="M70.366 81.718h4.666v26.036h-4.666z"/><path d="M91.417 32.012c0-1.666-1.04-2.747-3.667-2.747h-2.12v10.779h2.254c2.64 0 3.826-1.237 3.826-2.916 0-1.445-.947-2.382-2.08-2.604v-.026c.96-.247 1.787-.989 1.787-2.486zm-1.4.052c0 1.237-.787 1.992-2.28 1.992h-.72v-3.71h.733c1.56 0 2.267.729 2.267 1.718zm.2 4.96c0 1.237-.707 1.9-2.333 1.9h-.867v-3.788h.947c1.44 0 2.253.742 2.253 1.888zm7.359 2.174h.04v.846h1.173v-7.498h-1.293v5.728c-.253.312-.76.833-1.546.833-.867 0-1.28-.495-1.28-1.732v-4.83h-1.294v4.921c0 2.031.84 2.76 2.2 2.76 1.173 0 1.853-.755 2-1.028zm6.066-5.767c.893 0 1.333.52 1.333 1.783v4.83h1.293v-4.92c0-2.032-.866-2.76-2.24-2.76-1.2 0-1.892.754-2.04 1.028h-.026v-.846h-1.186v7.498h1.293v-5.78c.267-.312.786-.833 1.573-.833zm7.253 5.676c-.907 0-1.707-.69-1.707-2.747 0-2.122.947-2.877 2.147-2.877.466 0 .773.13 1 .26v4.635c-.187.247-.627.729-1.44.729zm1.52.143h.026v.794h1.187V28.862l-1.293.143v3.593c-.24-.104-.6-.196-1.094-.196-1.626 0-3.386.977-3.386 3.997 0 2.734 1.227 3.827 2.68 3.827 1.213 0 1.733-.742 1.88-.976zm5.692-5.858c.814 0 1.24.612 1.24 1.64 0 .234-.013.43-.026.547h-2.787c.067-1.406.653-2.187 1.573-2.187zm2.587 5.949-.48-.885c-.174.169-.707.65-1.613.65-1.294 0-2-.832-2.08-2.577h3.92c.053-.364.093-.807.093-1.458 0-1.796-.894-2.708-2.347-2.708-1.6 0-2.933 1.185-2.933 3.84 0 2.826 1.213 4.023 3.16 4.023 1.453 0 2.08-.664 2.28-.885zm5.44-6.184c-.254-.247-.76-.794-1.947-.794-1.254 0-2.227.82-2.227 1.927 0 1.041.574 1.64 1.533 2.24l.48.299c.734.455 1.12.703 1.12 1.419 0 .481-.413.859-1.186.859-.827 0-1.307-.482-1.547-.73l-.626.99c.306.312.933.86 2.16.86 1.573 0 2.452-.912 2.452-2.11 0-1.106-.64-1.718-1.68-2.317l-.48-.286c-.693-.404-1.013-.716-1.013-1.276 0-.443.374-.807 1.054-.807.72 0 1.173.442 1.346.625zm4.612.326c.8 0 1.147.52 1.147 1.731v4.83h1.293v-5.025a4.7 4.7 0 0 0-.054-.781c.28-.338.76-.755 1.467-.755.867 0 1.333.52 1.333 1.731v4.83h1.293v-5.025c0-1.783-.8-2.656-2.333-2.656-1 0-1.706.573-2.04.99-.346-.664-.986-.99-1.853-.99a2.293 2.293 0 0 0-1.92 1.029h-.026v-.846h-1.187v7.498h1.294v-5.78c.226-.26.72-.781 1.586-.781zm9.066-2.747c.52 0 .866-.377.866-.911 0-.508-.346-.885-.866-.885s-.88.377-.88.885c0 .534.36.911.88.911zm.64 1.81h-1.293v7.498h1.293zm4.853.885c.893 0 1.32.52 1.32 1.783v4.83h1.306v-4.92c0-2.032-.867-2.76-2.24-2.76-1.2 0-1.893.754-2.04 1.028h-.026v-.846h-1.187v7.498h1.293v-5.78c.254-.312.787-.833 1.574-.833zm5.212-2.695c.507 0 .867-.377.867-.911 0-.508-.36-.885-.867-.885-.533 0-.88.377-.88.885 0 .534.347.911.88.911zm.64 1.81h-1.293v7.498h1.293zm5.853.611c-.253-.247-.76-.794-1.946-.794-1.254 0-2.227.82-2.227 1.927 0 1.041.573 1.64 1.533 2.24l.48.299c.734.455 1.12.703 1.12 1.419 0 .481-.413.859-1.186.859-.827 0-1.307-.482-1.547-.73l-.626.99c.306.312.933.86 2.16.86 1.572 0 2.452-.912 2.452-2.11 0-1.106-.64-1.718-1.68-2.317l-.48-.286c-.693-.404-1.013-.716-1.013-1.276 0-.443.374-.807 1.054-.807.72 0 1.173.442 1.346.625zm5.213 6.744-.173-1.016c-.12.079-.414.222-.8.222-.654 0-.907-.313-.907-1.38v-4.153h1.68l.16-1.028h-1.84V30.45h-1.16l-.133 2.096-.933.182v.846h.933v4.335c0 1.653.666 2.317 1.973 2.317.693 0 1.093-.247 1.2-.325zm3.653-6.51c.813 0 1.253.613 1.253 1.641 0 .234-.027.43-.04.547h-2.786c.066-1.406.666-2.187 1.573-2.187zm2.586 5.95-.48-.885c-.173.169-.693.65-1.613.65-1.293 0-2-.832-2.08-2.577h3.92c.053-.364.093-.807.093-1.458 0-1.796-.893-2.708-2.346-2.708-1.6 0-2.933 1.185-2.933 3.84 0 2.826 1.226 4.023 3.16 4.023 1.453 0 2.08-.664 2.28-.885zm5.106-6.808c-.12-.052-.333-.13-.706-.13-.973 0-1.387.56-1.613 1.158h-.027v-1.015h-1.187v7.498h1.294V34.55c.2-.507.626-1.015 1.44-1.015.36 0 .573.091.64.117zm1.774-1.797c.52 0 .866-.377.866-.911 0-.508-.346-.885-.866-.885s-.88.377-.88.885c0 .534.36.911.88.911zm.64 1.81h-1.294v7.498h1.294zm6.146 6.652h.04v.846h1.173v-7.498h-1.293v5.728c-.254.312-.76.833-1.547.833-.867 0-1.28-.495-1.28-1.732v-4.83h-1.293v4.921c0 2.031.84 2.76 2.2 2.76 1.173 0 1.853-.755 2-1.028zm6.079-5.715c.8 0 1.16.52 1.16 1.731v4.83h1.293v-5.025c0-.286-.013-.547-.067-.781.294-.338.774-.755 1.467-.755.866 0 1.333.52 1.333 1.731v4.83h1.293v-5.025c0-1.783-.8-2.656-2.333-2.656-.986 0-1.693.573-2.026.99-.36-.664-1-.99-1.867-.99a2.293 2.293 0 0 0-1.92 1.029h-.026v-.846h-1.187v7.498h1.293v-5.78c.227-.26.72-.781 1.587-.781zM88.59 49.196l.16-1.029h-1.733v-1.34c0-.99.333-1.315.947-1.315.333 0 .573.13.706.208l.267-1.055c-.12-.078-.547-.273-1.08-.273-1.147 0-2.133.65-2.133 2.291v1.497l-.933.17v.846h.933v6.47h1.293v-6.47zm5.933-3.19c0-.481-.333-.794-.773-.794-.427 0-.76.313-.76.794 0 .495.333.807.76.807.44 0 .773-.312.773-.807zm-2.466 0c0-.481-.334-.794-.76-.794-.44 0-.774.313-.774.794 0 .495.334.807.774.807.426 0 .76-.312.76-.807zm1.973 8.813h.026v.847h1.187v-7.499H93.95v5.728c-.254.313-.774.833-1.56.833-.853 0-1.28-.494-1.28-1.731v-4.83h-1.293v4.921c0 2.03.853 2.76 2.213 2.76 1.16 0 1.853-.755 2-1.029zm6.732-6.665a1.735 1.735 0 0 0-.706-.13c-.973 0-1.387.56-1.613 1.159h-.027v-1.016h-1.187v7.499h1.294v-5.494c.186-.508.626-1.015 1.44-1.015.346 0 .573.09.64.117zm6.333 7.512c3.373 0 5.48-1.706 5.48-5.65 0-3.71-1.72-5.13-5.32-5.13h-2.08v10.78zm.16-9.699c2.453 0 3.826 1.003 3.826 4.049 0 3.293-1.44 4.53-3.986 4.53h-.52v-8.579zm7.72.39c.506 0 .853-.377.853-.91 0-.508-.347-.886-.854-.886-.533 0-.88.378-.88.885 0 .534.347.912.88.912zm.64 1.81h-1.307v7.499h1.306zm5.625 2.33c0 1.08-.613 1.498-1.346 1.498-.707 0-1.32-.417-1.32-1.498s.613-1.497 1.36-1.497c.693 0 1.306.417 1.306 1.497zm1.893 5.741c0-1.419-1.093-1.978-2.546-1.978h-.973c-.56 0-.787-.222-.787-.534 0-.39.36-.586.627-.703.12.013.253.013.4.013 1.493 0 2.653-.95 2.653-2.539 0-.507-.133-.976-.373-1.34h.96l.173-.99h-2.333a2.66 2.66 0 0 0-1.027-.182c-1.44 0-2.6.82-2.6 2.512 0 1.185.52 1.94 1.307 2.292v.039c-.187.09-.92.403-.92 1.21 0 .469.173.82.493 1.055v.026c-.36.182-1.28.716-1.28 1.822 0 1.302.88 2.031 2.507 2.031 2.28 0 3.72-1.12 3.72-2.734zm-3.626 1.667c-.906 0-1.36-.417-1.36-1.211 0-.742.427-1.107.787-1.315.173.04.387.052.6.052h.973c.787 0 1.293.287 1.293 1.003 0 .768-.72 1.47-2.293 1.47zm5.72-11.547c.506 0 .866-.378.866-.912 0-.507-.36-.885-.866-.885-.534 0-.88.378-.88.885 0 .534.346.912.88.912zm.64 1.81h-1.294v7.498h1.294zm5.466 7.354-.174-1.015a1.571 1.571 0 0 1-.8.221c-.653 0-.906-.312-.906-1.38v-4.152h1.68l.16-1.029h-1.84v-2.096h-1.16l-.147 2.096-.92.182v.847h.92v4.335c0 1.653.68 2.317 1.987 2.317.693 0 1.093-.247 1.2-.326zm4.413-4.074h-.4c-1.734 0-3.2.573-3.2 2.317 0 1.21.88 2.083 2.053 2.083.973 0 1.44-.638 1.613-1.016h.04c.014.378.027.612.04.834h1.24c-.04-.209-.107-.925-.107-1.563V50.68c0-1.888-.826-2.695-2.4-2.695-1.226 0-1.96.573-2.292.898l.533.846c.293-.247.8-.677 1.573-.677.827 0 1.307.417 1.307 1.68zm0 .937v1.653c-.16.235-.52.742-1.28.742-.64 0-1.014-.39-1.014-1.158 0-.833.654-1.172 1.88-1.224zm4.52-7.902-1.294.143v9.4c0 1.327.586 1.783 1.453 1.783.573 0 .907-.143 1.04-.208l-.12-.938c-.08.04-.24.091-.48.091-.44 0-.6-.208-.6-.833zm4.865 4.53c.814 0 1.24.612 1.24 1.64 0 .235-.013.43-.027.547h-2.786c.067-1.406.653-2.187 1.573-2.187zm2.587 5.95-.48-.886c-.174.17-.707.651-1.613.651-1.294 0-2-.833-2.08-2.577h3.92c.04-.365.093-.807.093-1.458 0-1.797-.894-2.708-2.347-2.708-1.6 0-2.933 1.185-2.933 3.84 0 2.825 1.213 4.023 3.147 4.023 1.466 0 2.08-.664 2.293-.885zm5.44-6.184c-.254-.247-.774-.794-1.947-.794-1.254 0-2.227.82-2.227 1.927 0 1.041.573 1.64 1.533 2.239l.48.3c.734.455 1.12.702 1.12 1.418 0 .482-.413.86-1.186.86-.827 0-1.307-.482-1.547-.73l-.626.99c.306.312.933.859 2.16.859 1.573 0 2.452-.911 2.452-2.11 0-1.106-.64-1.717-1.68-2.316l-.48-.287c-.693-.403-1.013-.716-1.013-1.275 0-.443.374-.808 1.054-.808.72 0 1.173.443 1.346.625zm9.278 6.04h.027v.847h1.186v-7.499h-1.293v5.728c-.253.313-.773.833-1.546.833-.867 0-1.28-.494-1.28-1.731v-4.83h-1.307v4.921c0 2.03.854 2.76 2.213 2.76 1.174 0 1.854-.755 2-1.029zm6.066-5.767c.893 0 1.32.521 1.32 1.784v4.83h1.307v-4.921c0-2.031-.867-2.76-2.24-2.76-1.2 0-1.893.755-2.04 1.028h-.027v-.846h-1.186v7.499h1.293v-5.78c.253-.313.787-.834 1.573-.834zm7.24 5.676c-.894 0-1.694-.69-1.694-2.746 0-2.122.947-2.877 2.147-2.877.466 0 .773.13.986.26v4.634a1.709 1.709 0 0 1-1.44.73zm1.52.144h.04v.794h1.186V44.483l-1.307.143v3.593c-.24-.104-.586-.195-1.08-.195-1.64 0-3.4.976-3.4 3.997 0 2.733 1.24 3.827 2.694 3.827 1.213 0 1.733-.742 1.866-.976zM90.377 61.133c-.24-.182-.947-.807-2.413-.807-1.734 0-2.827 1.055-2.827 2.447 0 1.484.694 2.2 1.92 3.203l.893.729c.92.768 1.374 1.276 1.374 2.213 0 .729-.614 1.34-1.694 1.34-1.133 0-1.88-.69-2.146-.937l-.56 1.185c.32.287 1.146.963 2.733.963 1.986 0 3.08-1.106 3.08-2.746 0-1.406-.827-2.252-1.867-3.086l-.893-.729c-1-.794-1.467-1.327-1.467-2.16 0-.678.494-1.25 1.454-1.25 1.026 0 1.666.494 1.84.664zm5.266 10.011-.173-1.015a1.571 1.571 0 0 1-.8.22c-.654 0-.92-.312-.92-1.379v-4.153h1.68l.16-1.028h-1.84v-2.096h-1.147l-.146 2.096-.92.182v.846h.92v4.335c0 1.654.68 2.317 1.986 2.317.693 0 1.093-.247 1.2-.325zm4.413-4.075h-.4c-1.747 0-3.2.573-3.2 2.318 0 1.21.88 2.082 2.053 2.082.973 0 1.44-.637 1.613-1.015h.027c.027.378.04.612.053.833h1.227a14.984 14.984 0 0 1-.093-1.562v-3.424c0-1.887-.827-2.694-2.4-2.694-1.227 0-1.96.572-2.307.898l.547.846c.293-.247.8-.677 1.573-.677.827 0 1.307.417 1.307 1.68zm0 .938v1.653c-.16.234-.52.742-1.28.742-.64 0-1.027-.39-1.027-1.159 0-.833.667-1.171 1.893-1.223zm6.386-.938h-.4c-1.747 0-3.2.573-3.2 2.318 0 1.21.88 2.082 2.053 2.082.974 0 1.44-.637 1.613-1.015h.027c.013.378.04.612.053.833h1.227a14.984 14.984 0 0 1-.093-1.562v-3.424c0-1.887-.827-2.694-2.4-2.694-1.227 0-1.973.572-2.307.898l.547.846c.293-.247.8-.677 1.573-.677.827 0 1.307.417 1.307 1.68zm0 .938v1.653c-.16.234-.533.742-1.28.742-.64 0-1.027-.39-1.027-1.159 0-.833.654-1.171 1.894-1.223zm6.72 3.137-.174-1.015a1.571 1.571 0 0 1-.8.22c-.653 0-.92-.312-.92-1.379v-4.153h1.68l.16-1.028h-1.84v-2.096h-1.147l-.146 2.096-.92.182v.846h.92v4.335c0 1.654.68 2.317 1.986 2.317.694 0 1.093-.247 1.2-.325zm5.132-6.743c-.253-.248-.76-.794-1.947-.794-1.253 0-2.226.82-2.226 1.926 0 1.042.573 1.64 1.533 2.24l.48.299c.733.455 1.12.703 1.12 1.419 0 .481-.413.859-1.187.859-.826 0-1.306-.482-1.546-.73l-.627.99c.307.313.934.86 2.16.86 1.573 0 2.453-.912 2.453-2.11 0-1.106-.64-1.718-1.68-2.317l-.48-.286c-.693-.404-1.013-.716-1.013-1.276 0-.442.374-.807 1.053-.807.72 0 1.174.443 1.347.625zm4.613.325c.8 0 1.146.52 1.146 1.732v4.83h1.294v-5.026a4.7 4.7 0 0 0-.054-.78c.28-.34.76-.756 1.467-.756.866 0 1.333.52 1.333 1.732v4.83h1.293v-5.026c0-1.783-.8-2.655-2.333-2.655-1 0-1.706.572-2.04.989-.346-.664-.986-.99-1.853-.99a2.293 2.293 0 0 0-1.92 1.029h-.026v-.846h-1.187v7.498h1.293v-5.78c.227-.26.72-.78 1.587-.78zm8.066 2.812c0 2.812 1.293 3.931 2.986 3.931 1.68 0 3.066-1.132 3.066-3.931 0-2.76-1.293-3.931-2.986-3.931-1.653 0-3.066 1.171-3.066 3.931zm4.72 0c0 1.979-.627 2.812-1.68 2.812-1.067 0-1.707-.833-1.707-2.812s.626-2.864 1.68-2.864c1.066 0 1.706.885 1.706 2.864zm5.652 2.812c-.893 0-1.693-.69-1.693-2.747 0-2.122.946-2.877 2.146-2.877.467 0 .774.13.987.26v4.635a1.709 1.709 0 0 1-1.44.729zm1.52.143h.04v.794h1.186V60.105l-1.306.143v3.593c-.24-.104-.587-.195-1.08-.195-1.64 0-3.4.976-3.4 3.996 0 2.734 1.24 3.827 2.693 3.827 1.214 0 1.733-.742 1.867-.976zm5.706-5.858c.813 0 1.24.612 1.24 1.64 0 .235-.014.43-.027.547h-2.786c.066-1.406.653-2.187 1.573-2.187zm2.586 5.95-.48-.886c-.173.17-.706.65-1.613.65-1.293 0-2-.832-2.08-2.577h3.92c.04-.364.093-.807.093-1.458 0-1.796-.893-2.707-2.346-2.707-1.6 0-2.933 1.184-2.933 3.84 0 2.825 1.213 4.022 3.146 4.022 1.467 0 2.08-.663 2.293-.885zm5.106-6.81a1.735 1.735 0 0 0-.706-.13c-.973 0-1.387.56-1.613 1.16h-.04v-1.016h-1.174v7.498h1.294v-5.493c.186-.508.626-1.016 1.44-1.016.346 0 .573.091.64.117zm3.987.9c.893 0 1.32.52 1.32 1.783v4.83h1.293v-4.922c0-2.03-.853-2.76-2.24-2.76-1.2 0-1.88.756-2.026 1.029h-.027v-.846h-1.187v7.498h1.294v-5.78c.253-.312.786-.833 1.573-.833zm5.213-2.696c.506 0 .866-.377.866-.91 0-.509-.36-.886-.866-.886-.534 0-.88.377-.88.885 0 .534.346.911.88.911zm.64 1.81h-1.294v7.498h1.293zm5.852.612c-.253-.248-.773-.794-1.946-.794-1.253 0-2.227.82-2.227 1.926 0 1.042.574 1.64 1.534 2.24l.48.299c.733.455 1.12.703 1.12 1.419 0 .481-.414.859-1.187.859-.827 0-1.307-.482-1.547-.73l-.626.99c.306.313.933.86 2.16.86 1.573 0 2.453-.912 2.453-2.11 0-1.106-.64-1.718-1.68-2.317l-.48-.286c-.693-.404-1.013-.716-1.013-1.276 0-.442.373-.807 1.053-.807.72 0 1.173.443 1.346.625zm2.387-2.422c.506 0 .866-.377.866-.91 0-.509-.36-.886-.866-.886-.534 0-.88.377-.88.885 0 .534.346.911.88.911zm.64 1.81h-1.294v7.498h1.294zm4.48.846c.812 0 1.239.612 1.239 1.64 0 .235-.013.43-.027.547h-2.786c.067-1.406.653-2.187 1.573-2.187zm2.586 5.95-.48-.886c-.174.17-.707.65-1.614.65-1.293 0-2-.832-2.08-2.577h3.92c.054-.364.094-.807.094-1.458 0-1.796-.894-2.707-2.347-2.707-1.6 0-2.933 1.184-2.933 3.84 0 2.825 1.213 4.022 3.16 4.022 1.453 0 2.08-.663 2.28-.885zm5.106-6.81a1.735 1.735 0 0 0-.707-.13c-.973 0-1.386.56-1.613 1.16h-.027v-1.016h-1.186v7.498h1.293v-5.493c.187-.508.627-1.016 1.44-1.016.346 0 .573.091.64.117zm5.28 6.666h.026v.846h1.186V63.79h-1.293v5.728c-.253.312-.773.833-1.546.833-.867 0-1.28-.495-1.28-1.731v-4.83h-1.307v4.92c0 2.031.854 2.76 2.213 2.76 1.174 0 1.854-.755 2-1.028zm6.065-5.767c.893 0 1.32.52 1.32 1.784v4.83h1.307v-4.922c0-2.03-.867-2.76-2.24-2.76-1.2 0-1.893.756-2.04 1.029h-.027v-.846h-1.186v7.498h1.293v-5.78c.253-.312.787-.833 1.573-.833zm8.2 1.445c0 1.08-.6 1.497-1.334 1.497-.706 0-1.333-.416-1.333-1.497s.627-1.497 1.36-1.497c.706 0 1.306.417 1.306 1.497zm1.893 5.741c0-1.419-1.094-1.979-2.547-1.979h-.973c-.56 0-.787-.221-.787-.533 0-.391.374-.586.627-.703.133.013.253.013.4.013 1.506 0 2.653-.95 2.653-2.539 0-.508-.12-.976-.36-1.34h.96l.173-.99h-2.333a2.706 2.706 0 0 0-1.026-.182c-1.44 0-2.614.82-2.614 2.512 0 1.185.534 1.94 1.32 2.291v.04c-.2.09-.933.403-.933 1.21 0 .469.173.82.493 1.054v.026c-.346.183-1.28.716-1.28 1.823 0 1.302.88 2.03 2.52 2.03 2.267 0 3.707-1.119 3.707-2.733zm-3.613 1.666c-.92 0-1.36-.416-1.36-1.21 0-.742.413-1.107.786-1.315.174.039.374.052.587.052h.973c.787 0 1.293.286 1.293 1.002 0 .768-.72 1.471-2.28 1.471z"/></svg>