<?xml version="1.0" encoding="UTF-8"?>
<svg xmlns="http://www.w3.org/2000/svg" viewBox="0 0 1587.4 1587.4">
  <defs>
    <style>
      .cls-1 {
        fill: none;
      }

      .cls-2 {
        fill: #010000;
      }

      .cls-3 {
        fill: #fff;
      }

      .cls-4 {
        fill: #e30613;
      }

      .cls-5 {
        fill: #ccdde7;
        fill-rule: evenodd;
      }
    </style>
  </defs>
  <g id="Ebene_4" data-name="Ebene 4">
    <g>
      <path class="cls-5" d="M1034.13,1208.53c0,16.15-13.22,29.39-29.39,29.39H472.46c-16.17,0-29.39-13.23-29.39-29.39v-559.39c0-16.17,13.22-29.39,29.39-29.39h532.28c16.17,0,29.39,13.22,29.39,29.39v559.39Z"/>
      <path class="cls-4" d="M1004.74,1256.16H472.46c-26.26,0-47.63-21.36-47.63-47.63v-559.39c0-26.26,21.37-47.63,47.63-47.63h532.28c26.26,0,47.63,21.37,47.63,47.63v559.39c0,26.28-21.37,47.63-47.63,47.63h0ZM472.46,638c-6.03,0-11.14,5.11-11.14,11.14v559.39c0,6.03,5.11,11.14,11.14,11.14h532.28c6.03,0,11.14-5.11,11.14-11.14v-559.39c0-6.03-5.11-11.14-11.14-11.14H472.46Z"/>
    </g>
    <g>
      <path class="cls-4" d="M563.8,512.72l-3.12,2.43c-10.76,8.39-23.37,12.65-37.48,12.65-24.07,0-40.26-10.71-49.51-32.76-5-11.78-7.53-28.36-7.53-49.29,0-24.16,3.35-43.12,9.94-56.34,9.83-19.46,24.4-28.92,44.57-28.92,13.35,0,25.47,3.96,36.01,11.78l3.1,2.3,19.27-25.75-2.87-2.35c-14.42-11.81-33.09-17.8-55.48-17.8-17.19,0-33.15,4.64-47.42,13.78-14.23,9.11-25.62,21.84-33.84,37.83-9.65,18.69-14.54,40.91-14.54,66.05,0,30.83,7.75,57.03,23.02,77.87,17.22,23.51,41.28,35.43,71.52,35.43,23.11,0,43.51-6.24,60.63-18.56l3.2-2.3-19.48-26.04Z"/>
      <path class="cls-4" d="M762.16,332.38h-43.28l-73.43,224.2h39.57l18.83-61.13h69.3l19.11,61.13h42.05l-72.15-224.2ZM763.98,462.68h-50.05c2.56-7.86,6.97-22.4,13.35-44.02,5.34-18.08,9.32-31.75,11.9-40.87,2.47,9.05,6.34,22.65,11.58,40.68,6.1,21.06,10.59,36.09,13.22,44.22Z"/>
      <path class="cls-4" d="M1004.16,425.09l-25.44-7.55c-19.65-5.77-29.2-14.71-29.2-27.35,0-8.92,2.98-15.76,9.09-20.89,6.3-5.23,15.13-7.88,26.25-7.88,14.89,0,31.53,5.51,49.44,16.39l3.25,1.97,17.49-27.7-3-2.12c-19.83-14-42.85-21.1-68.41-21.1-22.19,0-40.46,6.2-54.3,18.42-13.98,12.31-21.07,28.54-21.07,48.22,0,29,18.13,49.04,53.89,59.58l22.6,6.58c22.16,6.41,32.94,17.21,32.94,33,0,10.37-3.69,18.37-11.27,24.44-7.73,6.2-18.36,9.34-31.61,9.34-18.82,0-37.77-5.82-56.33-17.31l-3.57-2.21-15.47,30.19,3.07,1.87c21.46,13.09,45.57,19.73,71.67,19.73s48.86-7.87,64.84-23.39c13.67-13.42,20.6-29.45,20.6-47.64,0-31.9-18.66-53.64-55.45-64.6Z"/>
    </g>
    <g>
      <path class="cls-2" d="M1194.72,368c0,9.19-2.78,17.84-8.29,25.93l-7.42-4.49c4.85-7.45,7.27-14.43,7.27-20.94,0-5.33-1.27-9.54-3.78-12.58-2.49-3.06-5.97-4.57-10.38-4.57-3.44,0-6.24,1.07-8.41,3.3-2.17,2.23-4.04,5.89-5.63,10.96l-3.15,9.91c-2.26,7.08-5.13,12.13-8.64,15.15-4.35,3.77-9.4,5.62-15.17,5.62-8.53,0-15.42-3.96-20.68-11.89-3.52-5.24-5.27-11.69-5.27-19.27,0-10.04,2.6-19.22,7.75-27.58l8.04,4.51c-4.92,6.85-7.38,14.54-7.38,23.04,0,5.75,1.28,10.31,3.76,13.64,3.11,4.09,7.18,6.15,12.27,6.15,7.64,0,12.97-5.15,16.06-15.42l2.62-8.64c2.27-7.51,4.81-12.6,7.65-15.26,3.79-3.6,8.46-5.39,14.05-5.39,7.35,0,13.33,2.57,17.88,7.66,4.55,5.08,6.84,11.82,6.84,20.16Z"/>
      <path class="cls-2" d="M1150.18,425.97c13.6,0,24.36,3.06,32.26,9.17,7.89,6.12,11.82,14.47,11.82,25.06,0,11.78-4.67,20.81-14.04,27.1-7.67,5.14-18.27,7.75-31.81,7.75-15.72,0-27.34-4.18-34.96-12.52-5.5-6.11-8.28-13.39-8.28-21.81,0-9.95,3.65-18.09,10.93-24.46,7.83-6.84,19.22-10.29,34.08-10.29ZM1174.22,479.39c7.87-3.77,11.77-10.13,11.77-19.16,0-4-.87-7.69-2.66-10.98-1.78-3.29-4.25-5.79-7.33-7.45-5.51-2.92-13.4-4.37-23.71-4.37-13.7,0-23.69,1.83-29.93,5.51-2.67,1.57-4.88,4.11-6.64,7.63-1.76,3.49-2.65,7.06-2.65,10.63,0,6.85,2.45,12.21,7.42,16.05,5.33,4.17,14.15,6.27,26.43,6.27s21.46-1.39,27.3-4.13Z"/>
      <path class="cls-2" d="M1106.79,529.24h85.64v45.25l-8.54-1.63v-33.19h-27.82v27.57h-8.39v-27.57h-40.9v-10.43Z"/>
      <path class="cls-2" d="M1184.13,595.55h8.64v56.9l-8.64-.63v-23.32h-77.34v-9.88h77.34v-23.07Z"/>
      <path class="cls-2" d="M1106.79,694.94l85.98-20.32v11.05l-50.23,10.92c-4.25.88-13.01,2.45-26.19,4.62,7.66,1.26,15.98,2.9,24.92,4.89l51.51,11.42v11.64l-49.88,11.15c-13.01,2.91-21.88,4.63-26.55,5.13,6.84,1.01,15.71,2.66,26.55,5.04l49.88,10.63v10.28l-85.98-19.67v-13.41l47.76-10.65c9.46-2.11,17.6-3.58,24.46-4.51-7.29-1.08-15.17-2.54-23.7-4.38l-48.52-10.52v-13.28Z"/>
      <path class="cls-2" d="M1192.77,819.61v13.41l-85.98,28.46v-11.64l26.48-8.17v-32.06l-26.48-8.28v-10.39l85.98,28.67ZM1171.12,821.64c-1.1-.37-10.9-3.39-29.47-9.17v26.57l42.11-13.16-12.64-4.24Z"/>
      <path class="cls-2" d="M1106.79,889.73h85.86v20.1c0,9.95-1.82,17.13-5.51,21.64-4.6,5.7-10.62,8.58-18.04,8.58s-12.78-2.11-17.09-6.27c-4.29-4.2-6.46-9.74-6.46-16.56v-1.24c-2.08,2.59-5.31,5.44-9.65,8.65-1.41.98-4.76,3.3-10.01,6.94-2.85,2.12-9.18,6.3-19.09,12.83v-12.92c3.71-1.64,7.65-3.85,11.95-6.63,8.6-5.65,15.7-10.79,21.31-15.28,1.97-1.66,3.31-3.04,3.99-4.09.9-1.38,1.41-3.21,1.5-5.42h-38.75v-10.33ZM1184,910.02v-9.86h-32.07v9.15c0,7.29,1.45,12.42,4.32,15.42,2.89,2.99,7.21,4.54,12.98,4.54,2.84,0,5.47-.86,7.95-2.4,2.46-1.64,4.18-3.61,5.08-6.04,1.15-2.97,1.73-6.6,1.73-10.81Z"/>
      <path class="cls-2" d="M1106.79,977.73h85.41v46.97l-8.56-1.33v-35.26h-27.82v29.46h-8.89v-29.46h-31.2v37.87h-8.93v-48.25Z"/>
    </g>
  </g>
  <g id="Ebene_5" data-name="Ebene 5">
    <g>
      <path class="cls-1" d="M543.76,1203.86l-90.21-.09s-.05.07-.07.09l90.36.07c7.13-24.69,23.48-97.32,161.53-136.1-138.05,38.77-154.48,111.34-161.61,136.03Z"/>
      <path class="cls-3" d="M1138.52,1101.92c-31.16-13.21-60.27-10.96-60.54-10.93l-5.79.5-2.17-5.43c-.22-.64-48.7-75.01-137.77-112.24-95.14-39.75-132.77-39.22-148.81-38.96-2.04,0-3.81.05-5.39,0l-9.41-.31,2.09-9.18,17.48-77.36,1.73-7.75,7.76,1.89,203.1,49.6-.19-144.97c-7.11,3.67-22.07,9.99-31.91,23.83-19.43,27.26-20.57,60.61-20.57,60.61l-15.69-1.74c.04-.39.86-4.64,2.82-14.56-31-6.23-141.52-39.63-180.4-44.63-13.56,15.18-32.01,24.39-50.96,24.39-7.4,0-14.57-1.41-21.37-4.2-7.58-3.09-14.11-7.74-19.54-13.48l-154.45,34.02,2.77,12.66-15.11,3.28-3.9-17.88-.45-1.53c-.02-.09-2.88-9.95-9.24-21.25-1.89-3.39-4.23-6.15-6.62-8.46l.23,107.96,104.44-30.19.44-.15,50.84-16.07,4.7,14.98-19.32,6.06,32.93,88.93,2.54,6.76-6.63,3.06c-.72.36-54.13,15.86-99.16,87.51-45.25,71.9-50.6,131.47-50.69,132.09l-.89,6.5-6.56.26c-.28.02-24.28,1.16-35.31,18.24l90.21.09c7.14-24.68,23.56-97.25,161.61-136.03,2.18-.62,4.41-1.23,6.68-1.83,156.55-41.57,292.53,88.41,315.88,112.27l155.02-43.78c-7.41-8.87-21.71-22.96-44.43-32.58Z"/>
      <path class="cls-2" d="M1202.69,1135.12c-.71-1.21-17.68-30.47-58.03-47.54-27.5-11.67-52.98-12.62-63.26-12.36-11.24-16.5-59.16-80.77-143.08-115.84-89.65-37.49-130.74-40.22-150.17-40.22l13.59-59.95,205.05,50.06,9.12,2.25v-189.82l-10.22,3.84c-.96.39-20.09,5.76-36.11,21.56-24.99,24.6-24.82,36.06-31.62,51.34l-172.51-42.99c1.71-3.02,3.26-6.21,4.62-9.52,15.54-37.98,1.59-79.76-31.11-93.19-6.79-2.79-14-4.19-21.4-4.19-27.62,0-54.19,19.59-66.13,48.76-9.45,23.05-8.02,47.5,1.91,66.19l-148.96,32.38c-1.72-4.49-4.36-10.65-8.08-17.22-8.88-15.91-24.5-22.48-25.14-22.8l-9.83-4.01v154.41l9.28-2.51,131.92-38.16,30.58,82.62c-19.04,10.03-59.62,26.96-99.39,90.19-39.25,62.32-48.5,114.85-51.88,132.21-12.75,2.02-40.39,9.77-47.8,39.13l-2.47,9.75h10.02l108.33.12,6.45.02,1.22-6.36c.91-4.31,3.98-91.11,158.48-132.14,159.21-42.33,302.19,109.75,303.64,111.29l3.27,3.53,4.6-1.28,170.4-48.16,9.59-2.7-4.91-8.68ZM703.89,779.42c-5.4,0-10.66-1.03-15.59-3.06-24.92-10.23-35.13-43.09-22.75-73.28,9.6-23.5,30.52-39.3,52.01-39.3,5.43,0,10.67,1.03,15.61,3.06,24.92,10.21,35.13,43.08,22.79,73.28-9.65,23.5-30.57,39.3-52.06,39.3ZM1027.92,1178.28c-23.35-23.86-159.33-153.84-315.88-112.27-2.27.59-4.49,1.21-6.68,1.83-138.05,38.77-154.41,111.41-161.53,136.1l-90.36-.07s.04-.05.07-.09c11.03-17.07,35.03-18.21,35.31-18.24l6.56-.26.89-6.5c.09-.62,5.44-60.19,50.69-132.09,45.03-71.64,98.44-87.15,99.16-87.51l6.63-3.06-2.54-6.76-32.93-88.93,19.32-6.06-4.7-14.98-51.28,16.22-104.44,30.19-.23-107.96c2.38,2.3,4.73,5.06,6.62,8.46,6.36,11.3,9.21,21.15,9.24,21.25l.45,1.53,3.9,17.88,15.11-3.28-2.77-12.66,154.45-34.02c5.43,5.74,11.96,10.39,19.54,13.48,6.79,2.79,13.97,4.2,21.37,4.2,18.95,0,37.4-9.21,50.96-24.39,38.88,5,149.4,38.41,180.4,44.63-1.96,9.92-2.79,14.17-2.82,14.56l15.69,1.74s1.14-33.35,20.57-60.61c9.84-13.84,24.79-20.16,31.91-23.83l.19,144.97-203.1-49.6-7.76-1.89-1.73,7.75-17.48,77.36-2.09,9.18,9.41.31c1.59.05,3.36,0,5.39,0,16.04-.26,53.67-.78,148.81,38.96,89.07,37.23,137.54,111.6,137.77,112.24l2.17,5.43,5.79-.5c.27-.02,29.38-2.28,60.54,10.93,22.72,9.63,37.02,23.71,44.43,32.58l-155.02,43.78Z"/>
      <path class="cls-3" d="M755.95,740.13c12.34-30.2,2.13-63.07-22.79-73.28-4.94-2.03-10.18-3.06-15.61-3.06-21.49,0-42.4,15.79-52.01,39.3-12.38,30.19-2.17,63.04,22.75,73.28,4.93,2.03,10.2,3.06,15.59,3.06,21.5,0,42.41-15.79,52.06-39.3Z"/>
    </g>
  </g>
</svg>