<svg width="255" height="54" viewBox="0 0 255 54" fill="none" xmlns="http://www.w3.org/2000/svg">
<g id="CAS_Merlin_logo 1" clip-path="url(#clip0_5_223)">
<g id="Group">
<g id="Group_2">
<path id="Vector" d="M68.0384 50.2739L67.2325 47.7391H64.1242L63.3183 50.2739H62.2822L65.0451 41.863H66.3115L69.0745 50.2739H68.0384ZM65.7359 42.7848L64.4695 46.9326H67.1174L65.7359 42.7848Z" fill="#1E1719"/>
<path id="Vector_2" d="M77.1332 49.9282C76.5576 50.2739 75.9819 50.3891 75.2912 50.3891C74.2551 50.3891 73.4492 50.1587 72.6433 49.5826L73.1038 48.7761C73.7946 49.2369 74.4853 49.4674 75.4063 49.4674C76.0971 49.4674 76.4424 49.3522 76.7878 49.1217C77.2483 48.7761 77.3634 48.4304 77.3634 47.9695C77.3634 47.2782 76.9029 46.7022 75.8668 46.3565L74.8307 46.2413C74.0248 46.0108 73.6795 45.7804 73.3341 45.55C72.9887 45.2043 72.7585 44.7435 72.7585 44.1674C72.7585 42.7848 73.7946 41.7478 75.5214 41.7478C76.4424 41.7478 77.2483 41.9782 78.0542 42.5543L77.5937 43.2456C76.7878 42.6695 76.3273 42.5543 75.5214 42.5543C74.4853 42.5543 73.7946 43.1304 73.7946 43.9369C73.7946 44.6282 74.2551 44.9739 75.1761 45.3195L76.0971 45.6652C76.7878 45.8956 77.2483 46.1261 77.5937 46.4717C77.9391 46.8174 78.1693 47.3935 78.1693 47.9695C78.2844 48.6608 77.9391 49.4674 77.1332 49.9282Z" fill="#1E1719"/>
<path id="Vector_3" d="M86.8036 50.2737V45.7803C86.8036 45.2042 86.5734 44.8585 85.9977 44.8585C85.4221 44.8585 84.9616 45.2042 84.386 45.7803V50.2737H83.465V45.8955C83.465 45.5498 83.465 45.3194 83.3499 45.089C83.2348 44.9737 83.0045 44.8585 82.7743 44.8585C82.3138 44.8585 81.8533 45.089 81.1625 45.665V50.2737H80.2415V45.5498C80.2415 44.7433 80.1264 44.2824 80.0113 44.2824L80.9323 44.052C80.9323 44.1672 81.1625 44.6281 81.1625 44.9737C81.623 44.5129 82.3138 44.052 82.8894 44.052C83.465 44.052 84.0406 44.3977 84.2709 45.089C84.8465 44.5129 85.6524 44.052 86.228 44.052C87.149 44.052 87.7246 44.7433 87.7246 45.665V50.2737H86.8036Z" fill="#1E1719"/>
<path id="Vector_4" d="M94.0564 50.5042C93.5959 50.389 93.3657 50.0433 93.2506 49.5824C92.6749 50.1585 92.2144 50.389 91.5237 50.389C90.0271 50.389 89.5666 49.4672 89.5666 48.6607C89.5666 47.2781 90.7178 46.4716 92.7901 46.4716C92.9052 46.4716 93.0203 46.4716 93.2506 46.4716V46.0107C93.2506 45.4346 93.2506 45.2042 93.0203 45.089C92.7901 44.8585 92.5598 44.7433 92.2144 44.7433C91.5237 44.7433 90.6027 45.089 90.2573 45.4346L89.7968 44.8585C90.6027 44.2824 91.5237 44.052 92.3296 44.052C93.1354 44.052 93.7111 44.3977 94.0564 44.9737C94.1715 45.3194 94.1716 45.7803 94.1716 46.3563V48.315C94.1716 49.352 94.1715 49.5824 94.632 49.8129L94.0564 50.5042ZM92.6749 47.1629C91.1783 47.1629 90.6027 47.739 90.6027 48.6607C90.6027 49.352 90.9481 49.8129 91.6388 49.8129C92.2144 49.8129 92.7901 49.4672 93.1354 48.8911V47.2781C93.0203 47.1629 92.7901 47.1629 92.6749 47.1629Z" fill="#1E1719"/>
<path id="Vector_5" d="M99.0068 45.089C98.8916 45.089 98.8917 45.089 98.7765 45.089C98.4312 45.089 98.0858 45.2042 97.7404 45.5498C97.5102 45.7803 97.395 46.0107 97.395 46.4716V50.2737H96.474V45.5498C96.474 44.7433 96.3589 44.2824 96.2438 44.2824L97.1648 44.052C97.1648 44.1672 97.395 44.6281 97.395 45.089C97.8555 44.5129 98.4311 44.052 99.1219 44.052C99.237 44.052 99.4673 44.052 99.4673 44.1672L99.0068 45.089Z" fill="#1E1719"/>
<path id="Vector_6" d="M102.806 44.8585H101.539V48.8912C101.539 49.5825 101.77 49.8129 102.345 49.8129C102.576 49.8129 102.806 49.8129 102.921 49.6977L103.036 50.2738C102.691 50.389 102.345 50.5042 102 50.5042C101.655 50.5042 101.424 50.389 101.194 50.389C100.734 50.1585 100.619 49.8129 100.619 49.1216V44.9738H99.8126V44.2825H100.619C100.619 43.7064 100.734 42.8999 100.734 42.7846L101.77 42.5542C101.77 42.7846 101.655 43.5912 101.655 44.2825H103.151L102.806 44.8585Z" fill="#1E1719"/>
<path id="Vector_7" d="M107.641 50.3891C106.72 50.3891 105.799 50.0434 105.223 49.2369C104.533 48.4304 104.187 47.2782 104.187 46.0108C104.187 43.476 105.684 41.6326 107.756 41.6326C108.562 41.6326 109.253 41.863 109.828 42.3239L109.253 43.1304C108.792 42.7847 108.217 42.5543 107.641 42.5543C106.72 42.5543 106.029 43.0152 105.569 44.0521C105.339 44.6282 105.223 45.3195 105.223 46.2413C105.223 47.0478 105.339 47.5087 105.454 47.9695C105.914 49.0065 106.72 49.5826 107.756 49.5826C108.332 49.5826 108.907 49.4673 109.368 49.0065L109.944 49.6978C109.253 50.1587 108.447 50.3891 107.641 50.3891Z" fill="#1E1719"/>
<path id="Vector_8" d="M113.397 50.5042C111.67 50.5042 110.749 49.2368 110.749 47.2781C110.749 45.3194 111.786 44.052 113.397 44.052C114.433 44.052 115.124 44.5129 115.47 45.089C115.815 45.665 116.045 46.3564 116.045 47.3933C116.045 49.352 114.894 50.5042 113.397 50.5042ZM114.664 45.5498C114.433 44.9737 113.858 44.7433 113.397 44.7433C112.822 44.7433 112.361 44.9737 112.131 45.4346C111.901 45.7803 111.786 46.3564 111.786 47.0477C111.786 47.8542 111.901 48.6607 112.131 49.0063C112.361 49.352 112.822 49.5824 113.397 49.5824C114.088 49.5824 114.549 49.2368 114.664 48.6607C114.779 48.315 114.894 47.9694 114.894 47.3933C114.894 46.5868 114.779 46.0107 114.664 45.5498Z" fill="#1E1719"/>
<path id="Vector_9" d="M124.564 50.2737V45.7803C124.564 45.2042 124.334 44.8585 123.758 44.8585C123.183 44.8585 122.722 45.2042 122.147 45.7803V50.2737H121.226V45.8955C121.226 45.5498 121.226 45.3194 121.111 45.089C120.995 44.9737 120.765 44.8585 120.535 44.8585C120.074 44.8585 119.614 45.089 118.923 45.665V50.2737H118.002V45.5498C118.002 44.7433 117.887 44.2824 117.772 44.2824L118.693 44.052C118.693 44.1672 118.923 44.6281 118.923 44.9737C119.384 44.5129 120.074 44.052 120.65 44.052C121.226 44.052 121.801 44.3977 122.032 45.089C122.607 44.5129 123.413 44.052 123.989 44.052C124.91 44.052 125.485 44.7433 125.485 45.665V50.2737H124.564Z" fill="#1E1719"/>
<path id="Vector_10" d="M132.393 49.352C131.932 50.0433 131.357 50.5042 130.551 50.5042C129.975 50.5042 129.284 50.2738 128.824 49.8129V52.6933L127.903 52.9238V45.5498C127.903 44.7433 127.788 44.2825 127.788 44.2825L128.824 44.1672C128.824 44.1672 128.939 44.5129 128.939 45.089C129.4 44.5129 130.09 44.1672 130.781 44.1672C131.357 44.1672 132.047 44.3977 132.393 44.9738C132.853 45.5498 133.084 46.2411 133.084 47.3933C132.853 48.1998 132.738 48.7759 132.393 49.352ZM131.587 45.5498C131.357 45.089 130.896 44.8585 130.436 44.8585C129.86 44.8585 129.284 45.2042 128.824 45.6651V48.8911C129.284 49.352 129.86 49.6977 130.321 49.6977C130.896 49.6977 131.357 49.352 131.587 48.8911C131.817 48.5455 131.817 48.0846 131.817 47.3933C131.817 46.5868 131.702 46.0107 131.587 45.5498Z" fill="#1E1719"/>
<path id="Vector_11" d="M138.84 50.5042C138.379 50.3889 138.149 50.0433 138.034 49.5824C137.458 50.1585 136.998 50.3889 136.307 50.3889C134.81 50.3889 134.35 49.4672 134.35 48.6607C134.35 47.2781 135.501 46.4716 137.573 46.4716C137.688 46.4716 137.804 46.4716 138.034 46.4716V46.0107C138.034 45.4346 138.034 45.2042 137.804 45.0889C137.573 44.8585 137.343 44.7433 136.998 44.7433C136.307 44.7433 135.386 45.0889 135.041 45.4346L134.58 44.7433C135.386 44.1672 136.307 43.9368 137.113 43.9368C137.919 43.9368 138.494 44.2824 138.84 44.8585C138.955 45.2042 138.955 45.665 138.955 46.2411V48.1998C138.955 49.2368 138.955 49.4672 139.415 49.6976L138.84 50.5042ZM137.458 47.1629C135.962 47.1629 135.386 47.7389 135.386 48.6607C135.386 49.352 135.731 49.8129 136.422 49.8129C136.998 49.8129 137.573 49.4672 137.919 48.8911V47.2781C137.804 47.1629 137.573 47.1629 137.458 47.1629Z" fill="#1E1719"/>
<path id="Vector_12" d="M144.711 50.2737V46.1259C144.711 45.4346 144.711 45.3194 144.481 45.0889C144.366 44.9737 144.135 44.8585 143.79 44.8585C143.33 44.8585 142.524 45.2042 142.063 45.665V50.1585H141.142V45.4346C141.142 44.6281 140.912 44.2824 140.912 44.1672L141.833 43.9368C141.833 44.052 142.063 44.3976 142.063 44.8585C142.754 44.1672 143.33 43.9368 144.02 43.9368C144.711 43.9368 145.287 44.2824 145.517 44.8585C145.632 45.0889 145.632 45.3194 145.632 45.5498V50.1585H144.711V50.2737Z" fill="#1E1719"/>
<path id="Vector_13" d="M150.122 50.5042C149.661 51.7716 149.201 52.5781 148.165 52.8085L147.935 52.1172C148.74 51.8868 148.971 51.4259 149.316 50.2737L148.971 50.389C148.856 50.0433 148.51 48.7759 148.395 48.1998L147.129 44.3977L148.05 44.052L149.316 47.9694C149.431 48.4303 149.661 49.352 149.661 49.4672C149.777 49.0064 149.892 48.6607 150.007 48.1998L151.158 44.1672H152.194L150.122 50.5042Z" fill="#1E1719"/>
<path id="Vector_14" d="M158.526 50.5042C156.799 50.5042 155.878 49.2368 155.878 47.2781C155.878 45.3194 156.914 44.052 158.526 44.052C159.562 44.052 160.253 44.5129 160.598 45.089C160.944 45.665 161.174 46.3564 161.174 47.3933C161.059 49.352 160.023 50.5042 158.526 50.5042ZM159.677 45.5498C159.447 44.9737 158.871 44.7433 158.411 44.7433C157.835 44.7433 157.375 44.9737 157.144 45.4346C156.914 45.7803 156.799 46.3564 156.799 47.0477C156.799 47.8542 156.914 48.6607 157.144 49.0063C157.375 49.352 157.835 49.5824 158.411 49.5824C159.102 49.5824 159.562 49.2368 159.677 48.6607C159.792 48.315 159.907 47.9694 159.907 47.3933C160.023 46.5868 159.907 46.0107 159.677 45.5498Z" fill="#1E1719"/>
<path id="Vector_15" d="M165.779 42.4391C165.549 42.3238 165.203 42.2086 164.858 42.2086C164.282 42.2086 164.052 42.5543 164.052 43.2456V44.1673H165.779L165.433 44.8586H164.052V50.2738H163.016V44.8586H162.44V44.1673H163.016V43.2456C163.016 42.3238 163.476 41.9782 163.707 41.7478C164.052 41.5173 164.282 41.4021 164.743 41.4021C165.318 41.4021 165.779 41.5173 166.124 41.7478L165.779 42.4391Z" fill="#1E1719"/>
<path id="Vector_16" d="M172.456 50.3891C171.535 50.3891 170.614 50.0434 170.038 49.2369C169.348 48.4304 169.002 47.2782 169.002 46.0108C169.002 43.476 170.499 41.6326 172.571 41.6326C173.377 41.6326 174.068 41.863 174.643 42.3239L174.068 43.0152C173.607 42.6695 173.032 42.4391 172.456 42.4391C171.535 42.4391 170.844 42.9 170.384 43.9369C170.153 44.513 170.038 45.2043 170.038 46.126C170.038 46.9326 170.153 47.3934 170.269 47.8543C170.729 48.8913 171.535 49.4674 172.571 49.4674C173.147 49.4674 173.722 49.3521 174.183 48.8913L174.758 49.5826C174.183 50.1587 173.377 50.3891 172.456 50.3891Z" fill="#1E1719"/>
<path id="Vector_17" d="M181.09 50.2739L180.284 47.7391H177.176L176.37 50.2739H175.334L178.097 41.863H179.363L182.126 50.2739H181.09ZM178.788 42.7848L177.521 46.9326H180.169L178.788 42.7848Z" fill="#1E1719"/>
<path id="Vector_18" d="M187.652 49.9282C187.077 50.2739 186.501 50.3891 185.81 50.3891C184.774 50.3891 183.968 50.1587 183.163 49.5826L183.623 48.776C184.314 49.2369 185.005 49.4674 185.926 49.4674C186.616 49.4674 186.962 49.3521 187.307 49.1217C187.767 48.776 187.883 48.4304 187.883 47.9695C187.883 47.2782 187.422 46.7021 186.386 46.3565L185.58 46.126C184.774 45.8956 184.429 45.6652 184.084 45.4347C183.738 45.0891 183.508 44.6282 183.508 44.0521C183.508 42.6695 184.544 41.6326 186.271 41.6326C187.192 41.6326 187.998 41.863 188.804 42.4391L188.343 43.1304C187.537 42.5543 187.077 42.4391 186.271 42.4391C185.235 42.4391 184.544 43.0152 184.544 43.8217C184.544 44.513 185.005 44.8587 185.926 45.2043L186.847 45.55C187.537 45.7804 187.998 46.0108 188.343 46.3565C188.688 46.7021 188.919 47.2782 188.919 47.8543C188.804 48.6608 188.343 49.4674 187.652 49.9282Z" fill="#1E1719"/>
<path id="Vector_19" d="M197.093 49.9282C196.517 50.2739 195.941 50.3891 195.251 50.3891C194.214 50.3891 193.409 50.1587 192.603 49.5826L193.063 48.776C193.754 49.2369 194.445 49.4674 195.366 49.4674C196.056 49.4674 196.402 49.3521 196.747 49.1217C197.208 48.776 197.323 48.4304 197.323 47.9695C197.323 47.2782 196.862 46.7021 195.826 46.3565L195.02 46.126C194.214 45.8956 193.869 45.6652 193.524 45.4347C193.178 45.0891 192.948 44.6282 192.948 44.0521C192.948 42.6695 193.984 41.6326 195.711 41.6326C196.632 41.6326 197.438 41.863 198.244 42.4391L197.783 43.1304C196.977 42.5543 196.517 42.4391 195.711 42.4391C194.675 42.4391 193.984 43.0152 193.984 43.8217C193.984 44.513 194.445 44.8587 195.366 45.2043L196.287 45.55C196.977 45.7804 197.438 46.0108 197.783 46.3565C198.129 46.7021 198.359 47.2782 198.359 47.8543C198.244 48.6608 197.783 49.4674 197.093 49.9282Z" fill="#1E1719"/>
<path id="Vector_20" d="M202.273 50.5042C200.546 50.5042 199.625 49.2368 199.625 47.2781C199.625 45.3194 200.661 44.052 202.273 44.052C203.309 44.052 204 44.5129 204.345 45.089C204.691 45.665 204.921 46.3564 204.921 47.3933C204.921 49.352 203.77 50.5042 202.273 50.5042ZM203.54 45.5498C203.309 44.9737 202.734 44.7433 202.273 44.7433C201.698 44.7433 201.237 44.9737 201.007 45.4346C200.777 45.7803 200.661 46.3564 200.661 47.0477C200.661 47.8542 200.777 48.6607 201.007 49.0063C201.237 49.352 201.698 49.5824 202.273 49.5824C202.964 49.5824 203.424 49.2368 203.54 48.6607C203.655 48.315 203.77 47.9694 203.77 47.3933C203.77 46.5868 203.655 46.0107 203.54 45.5498Z" fill="#1E1719"/>
<path id="Vector_21" d="M212.519 44.8586H211.253V48.8912C211.253 49.5826 211.483 49.813 212.059 49.813C212.289 49.813 212.519 49.813 212.634 49.6978L212.749 50.2739C212.404 50.3891 212.059 50.5043 211.713 50.5043C211.368 50.5043 211.138 50.3891 210.907 50.3891C210.447 50.1586 210.332 49.813 210.332 49.1217V44.9739H207.799V50.3891H206.763V44.9739H206.187V44.2826H206.763V43.3608C206.763 42.4391 207.223 42.0934 207.454 41.863C207.799 41.6326 208.029 41.5173 208.49 41.5173C209.065 41.5173 209.526 41.6326 209.871 41.863L209.526 42.5543C209.296 42.4391 208.95 42.3239 208.605 42.3239C208.029 42.3239 207.799 42.6695 207.799 43.3608V44.2826H210.332C210.332 43.7065 210.447 42.8999 210.447 42.7847L211.483 42.5543C211.483 42.7847 211.368 43.5912 211.368 44.2826H212.865L212.519 44.8586Z" fill="#1E1719"/>
<path id="Vector_22" d="M219.657 50.389H218.736L217.47 46.1259C217.354 45.7803 217.354 45.5498 217.354 45.4346C217.354 45.5498 217.239 45.8955 217.239 46.0107L215.973 50.389H215.052L213.325 44.2824L214.246 44.052L215.282 48.0846C215.397 48.5455 215.512 49.0064 215.512 49.1216C215.512 49.0064 215.628 48.6607 215.743 48.1998L216.779 44.1672H217.815L218.851 48.1998C218.966 48.5455 219.081 49.0064 219.081 49.1216L219.312 48.315L220.233 44.1672H221.269L219.657 50.389Z" fill="#1E1719"/>
<path id="Vector_23" d="M226.795 50.5042C226.334 50.3889 226.104 50.0433 225.989 49.5824C225.413 50.1585 224.953 50.3889 224.262 50.3889C222.765 50.3889 222.305 49.4672 222.305 48.6607C222.305 47.2781 223.456 46.4716 225.528 46.4716C225.643 46.4716 225.758 46.4716 225.989 46.4716V46.0107C225.989 45.4346 225.989 45.2042 225.758 45.0889C225.528 44.8585 225.298 44.7433 224.953 44.7433C224.262 44.7433 223.456 45.0889 222.995 45.4346L222.535 44.7433C223.341 44.1672 224.262 43.9368 225.068 43.9368C225.874 43.9368 226.449 44.2824 226.795 44.8585C226.91 45.2042 226.91 45.665 226.91 46.2411V48.1998C226.91 49.2368 226.91 49.4672 227.37 49.6976L226.795 50.5042ZM225.413 47.1629C223.916 47.1629 223.341 47.7389 223.341 48.6607C223.341 49.352 223.686 49.8129 224.377 49.8129C224.953 49.8129 225.528 49.4672 225.874 48.8911V47.2781C225.758 47.1629 225.528 47.1629 225.413 47.1629Z" fill="#1E1719"/>
<path id="Vector_24" d="M231.745 45.089C231.63 45.089 231.63 45.089 231.515 45.089C231.169 45.089 230.824 45.2042 230.479 45.5498C230.248 45.7803 230.133 46.0107 230.133 46.4716V50.2737H229.097V45.5498C229.097 44.7433 228.982 44.2824 228.867 44.2824L229.788 44.052C229.788 44.1672 230.018 44.6281 230.018 45.089C230.479 44.5129 231.054 44.052 231.745 44.052C231.86 44.052 232.09 44.052 232.09 44.1672L231.745 45.089Z" fill="#1E1719"/>
<path id="Vector_25" d="M233.702 47.3933V47.5085C233.702 48.0846 233.817 48.5455 233.932 48.8911C234.278 49.4672 234.853 49.5824 235.429 49.5824C236.005 49.5824 236.465 49.352 236.926 49.0063L237.271 49.5824C236.695 50.0433 236.005 50.389 235.199 50.389C233.472 50.389 232.436 49.1216 232.436 47.1629C232.436 46.1259 232.666 45.4346 233.126 44.8585C233.587 44.2824 234.163 44.052 234.968 44.052C235.659 44.052 236.235 44.2824 236.58 44.7433C237.156 45.3194 237.271 45.8955 237.271 47.2781V47.3933H233.702ZM236.235 45.3194C236.005 44.9737 235.544 44.7433 235.084 44.7433C234.163 44.7433 233.702 45.4346 233.702 46.5868H236.465C236.58 46.0107 236.465 45.665 236.235 45.3194Z" fill="#1E1719"/>
<path id="Vector_26" d="M246.941 50.2739L246.135 47.7391H243.027L242.221 50.2739H241.185L243.948 41.863H245.214L247.977 50.2739H246.941ZM244.639 42.7848L243.372 46.9326H246.02L244.639 42.7848Z" fill="#1E1719"/>
<path id="Vector_27" d="M252.467 50.3891C251.431 50.3891 250.51 50.0435 249.935 49.3522C249.244 48.5456 248.898 47.5087 248.898 46.1261C248.898 44.513 249.359 43.3608 250.165 42.5543C250.74 41.9782 251.431 41.7478 252.352 41.7478C253.273 41.7478 253.964 41.9782 254.655 42.5543L254.194 43.1304C253.503 42.6695 253.043 42.4391 252.352 42.4391C251.316 42.4391 250.625 42.9 250.28 43.8217C250.05 44.3978 249.935 45.2043 249.935 46.0108C249.935 47.163 250.165 47.9695 250.51 48.5456C250.856 49.1217 251.777 49.4674 252.582 49.4674C253.158 49.4674 253.619 49.3522 253.964 49.1217V46.5869H252.237L252.007 45.7804H254.885V49.6978C254.309 50.1587 253.388 50.3891 252.467 50.3891Z" fill="#1E1719"/>
</g>
<g id="Group_3">
<path id="Vector_28" d="M80.8172 27.8065C79.2054 29.0739 77.5937 29.5348 75.5214 29.5348C72.298 29.5348 69.7652 27.8065 68.614 24.9261C67.9233 23.1978 67.5779 21.1239 67.5779 18.013C67.5779 14.5565 68.0384 12.0217 68.9594 10.1782C70.2257 7.52824 72.5282 6.14563 75.1761 6.14563C77.1332 6.14563 78.7449 6.72172 80.2415 7.87389L80.5869 8.10432L83.1196 4.6478L82.8894 4.41737C80.9323 2.80432 78.1693 1.9978 75.1761 1.9978C70.456 1.9978 66.3115 4.6478 64.009 9.14128C62.7427 11.6761 61.9368 14.7869 61.9368 18.2435C61.9368 22.6217 63.088 26.3087 65.2754 29.1891C67.693 32.3 71.0316 33.913 74.8307 33.913C78.0542 33.913 80.8172 32.9913 83.2348 31.3782L83.5801 31.1478L81.0474 27.6913L80.8172 27.8065Z" fill="#E21317"/>
<path id="Vector_29" d="M94.4018 2.45874L84.2709 33.337H89.5666L92.2144 24.8109H102L104.648 33.337H110.289L100.273 2.45874H94.4018ZM100.734 20.5479H93.4808C94.1716 18.2435 96.3589 11.2153 97.0497 8.33483C97.8555 11.2153 99.9278 18.2435 100.734 20.5479Z" fill="#E21317"/>
<path id="Vector_30" d="M125.255 15.363L121.686 14.3261C118.233 13.2891 117.542 12.0217 117.542 10.4087C117.542 7.87391 119.499 6.37608 122.607 6.37608C124.91 6.37608 126.752 6.95217 129.515 8.68043L129.86 8.91086L132.163 5.22391L131.932 4.99347C129.169 3.03478 125.946 2.11304 122.492 2.11304C116.275 2.11304 112.131 5.79999 112.131 11.3304C112.131 15.4783 114.433 18.013 119.499 19.5109L122.722 20.4326C125.831 21.3543 127.442 22.8522 127.442 25.1565C127.442 28.1522 125.14 29.8804 121.341 29.8804C118.578 29.8804 116.275 29.1891 113.512 27.4609L113.052 27L110.98 30.9174L111.325 31.1478C114.203 32.8761 117.542 33.913 121.226 33.913C128.939 33.913 132.968 28.9587 132.968 24.2348C132.853 19.8565 130.205 16.7456 125.255 15.363Z" fill="#E21317"/>
<path id="Vector_31" d="M167.275 2.57397L161.98 21.5848C161.749 22.5066 161.404 23.5435 161.289 24.3501C161.059 23.5435 160.828 22.6218 160.598 21.4696L155.418 2.57397H148.856L146.093 33.4522H151.043L152.655 13.2892C152.77 12.5979 152.77 11.5609 152.885 10.6392C153.115 11.4457 153.345 12.3675 153.576 13.4044L159.102 33.5675H163.361L169.463 12.4827C169.693 11.9066 169.693 11.4457 169.923 10.8696C169.923 11.4457 170.038 12.137 170.038 12.7131L171.65 33.5675H176.716L174.068 2.68919L167.275 2.57397Z" fill="#E21317"/>
<path id="Vector_32" d="M189.379 9.94775C186.501 9.94775 184.314 10.9847 182.472 13.1738C180.515 15.4782 179.709 18.013 179.709 21.9304C179.709 29.3043 183.623 33.913 189.84 33.913C192.833 33.913 195.481 32.9912 197.668 31.0325L197.898 30.8021L195.826 27.576L195.481 27.9217C193.984 29.1891 192.257 29.8804 190.415 29.8804C188.343 29.8804 186.847 29.0738 185.695 27.4608C185.12 26.5391 184.774 25.2717 184.774 23.313V23.1978H198.014V22.0456C197.898 16.976 197.208 14.326 195.251 12.3673C194.099 10.8695 191.912 9.94775 189.379 9.94775ZM189.379 13.8651C190.761 13.8651 191.682 14.5564 192.257 15.1325C193.063 16.0543 193.409 17.5521 193.524 19.3956H185.35C185.35 17.2064 185.926 13.8651 189.379 13.8651Z" fill="#E21317"/>
<path id="Vector_33" d="M212.634 9.94774C210.562 9.94774 208.72 10.8695 207.108 12.9434C206.993 12.0216 206.763 10.8695 206.418 10.1782L206.187 9.83252L201.467 11.0999L201.698 11.5608C202.158 12.8282 202.503 14.2108 202.503 16.8608V33.2216H207.339V18.8195C207.339 16.7456 209.296 14.9021 211.368 14.9021C211.713 14.9021 211.944 15.0173 212.289 15.1325L212.749 15.2477L214.476 10.5238L214.131 10.1782C213.786 10.063 213.21 9.94774 212.634 9.94774Z" fill="#E21317"/>
<path id="Vector_34" d="M223.341 29.9957C222.995 30.1109 222.535 29.9957 222.42 29.7652C222.19 29.5348 221.959 29.1891 221.959 26.8848V7.18261C221.959 4.41739 221.959 2.34348 221.499 0.845652V0.5L216.433 1.53696L216.549 1.99783C216.894 3.72609 217.009 5.22391 217.009 8.21956V27.9217C217.009 30.1109 217.239 30.9174 217.93 31.9543C218.851 33.2217 220.002 33.7978 221.729 33.7978C222.765 33.7978 223.456 33.5674 224.377 33.2217L224.722 32.9913L223.801 29.7652L223.341 29.9957Z" fill="#E21317"/>
<path id="Vector_35" d="M227.716 33.3369H232.666V10.063L227.716 10.8695V33.3369Z" fill="#E21317"/>
<path id="Vector_36" d="M230.248 1.07617C228.521 1.07617 227.025 2.574 227.025 4.41748C227.025 6.26095 228.406 7.75878 230.248 7.75878C232.09 7.75878 233.587 6.26095 233.587 4.41748C233.587 2.574 232.09 1.07617 230.248 1.07617Z" fill="#E21317"/>
<path id="Vector_37" d="M254.424 13.5195C253.503 11.4456 251.431 10.1782 248.898 10.1782C247.402 10.1782 245.905 10.6391 244.639 11.3304C243.833 11.7912 243.372 12.2521 242.451 12.9434C242.336 12.0217 242.106 11.2151 241.646 10.2934L241.415 9.94775L236.81 11.2151L237.041 11.676C237.616 13.1738 237.847 14.0956 237.847 16.7456V33.4521H242.682V16.8608C244.063 15.4782 246.251 14.326 247.632 14.326C248.553 14.326 249.129 14.5564 249.474 15.0173C249.935 15.5934 250.05 16.1695 250.05 18.1282V33.3369H254.885V16.3999C255 15.363 254.77 14.326 254.424 13.5195Z" fill="#E21317"/>
</g>
<g id="Group_4">
<g id="Group_5">
<g id="Group_6">
<path id="Vector_38" fill-rule="evenodd" clip-rule="evenodd" d="M45.2438 47.163C45.2438 48.3152 44.2077 49.3521 43.0564 49.3521H3.56886C2.41762 49.3521 1.3815 48.3152 1.3815 47.163V5.5695C1.3815 4.41733 2.41762 3.38037 3.56886 3.38037H43.1716C44.3228 3.38037 45.3589 4.41733 45.3589 5.5695V47.163H45.2438Z" fill="#CCDDE7"/>
</g>
<g id="Group_7">
<path id="Vector_39" d="M43.0564 50.7348H3.56885C1.61174 50.7348 0 49.1217 0 47.163V5.56954C0 3.61085 1.61174 1.9978 3.56885 1.9978H43.1716C45.1287 1.9978 46.7404 3.61085 46.7404 5.56954V47.163C46.6253 49.1217 45.0135 50.7348 43.0564 50.7348ZM3.56885 4.76302C3.10835 4.76302 2.76298 5.10867 2.76298 5.56954V47.163C2.76298 47.6239 3.10835 47.9695 3.56885 47.9695H43.1716C43.6321 47.9695 43.9774 47.6239 43.9774 47.163V5.56954C43.9774 5.10867 43.6321 4.76302 43.1716 4.76302H3.56885Z" fill="#E30613"/>
</g>
</g>
<g id="Group_8">
<path id="Vector_40" d="M53.0722 39.2131C50.7697 38.1762 48.5824 38.4066 48.5824 38.4066H48.1219L48.0068 37.9457C48.0068 37.9457 44.4379 32.4153 37.7607 29.6501C30.7381 26.6544 27.86 26.7697 26.7088 26.7697C26.5937 26.7697 26.4785 26.7697 26.3634 26.7697H25.6727L25.7878 26.0784L27.0542 20.3175L27.1693 19.7414L27.7449 19.8566L42.8262 23.5436V12.7131C42.2506 12.9436 41.2144 13.4044 40.4086 14.4414C38.9119 16.5153 38.912 18.9349 38.912 18.9349L37.7607 18.8197C37.7607 18.8197 37.8758 18.474 37.991 17.7827C35.6885 17.3218 27.5147 14.787 24.6366 14.4414C23.6004 15.5936 22.219 16.2849 20.8375 16.2849C20.2618 16.2849 19.8013 16.1697 19.2257 15.9392C18.6501 15.7088 18.1896 15.3631 17.7291 14.9023L6.21669 17.437L6.44694 18.3588L5.2957 18.5892L4.95033 17.2066V17.0914C4.95033 17.0914 4.72008 16.4001 4.25958 15.4784C4.14446 15.2479 3.91421 15.0175 3.79909 14.9023V22.9675L11.5124 20.7784L15.3115 19.6262L15.6569 20.7784L14.2754 21.2392L16.693 27.8066L16.9232 28.2675L16.4627 28.4979C16.4627 28.4979 12.4334 29.6501 9.0948 34.9501C5.7562 40.2501 5.2957 44.7436 5.2957 44.7436V45.4349H4.8352C4.8352 45.4349 2.99322 45.5501 2.18735 46.8175H8.86455C9.44017 44.974 10.5914 39.5588 20.8375 36.6784C20.9526 36.6784 21.1828 36.5631 21.298 36.5631C32.9255 33.4523 43.0564 43.1305 44.7833 44.8588L56.2957 41.6327C55.8352 40.9414 54.684 39.9044 53.0722 39.2131Z" fill="white"/>
<path id="Vector_41" d="M57.7923 41.7478C57.7923 41.6326 56.526 39.4435 53.5327 38.1761C51.4605 37.2543 49.6185 37.2543 48.8126 37.2543C48.0068 35.987 44.4379 31.263 38.2212 28.613C31.544 25.8478 28.5508 25.6174 27.0542 25.6174L28.0903 21.1239L43.2867 24.8109L43.9774 24.9261V11.7913V10.9848L43.1716 11.2152C43.0564 11.2152 41.6749 11.6761 40.5237 12.8283C38.6817 14.6717 38.6817 15.4783 38.2212 16.6304L25.3273 13.4043C25.4424 13.1739 25.5576 12.9435 25.6727 12.713C26.8239 9.83261 25.7878 6.72174 23.3702 5.8C22.9097 5.56956 22.3341 5.45435 21.7585 5.45435C19.6862 5.45435 17.7291 6.95217 16.8081 9.02608C16.1174 10.7543 16.2325 12.5978 16.9233 13.9804L5.87133 16.4C5.75621 16.0543 5.52596 15.5935 5.29571 15.1326C4.60497 13.9804 3.45373 13.5196 3.45373 13.5196L2.76298 13.1739V24.6957L3.45373 24.4652L13.2393 21.5848L15.5418 27.6913C14.1603 28.3826 11.167 29.65 8.17382 34.3739C5.29571 38.9826 4.60497 42.9 4.37472 44.1674C3.45373 44.2826 1.38149 44.8587 0.805871 47.0478L0.575623 47.7391H1.26637H9.32506H9.78555L9.90068 47.2783C10.0158 46.9326 10.2461 40.4804 21.6433 37.4848C33.5011 34.3739 44.0926 45.6652 44.2077 45.7804L44.4379 46.0109L44.7833 45.8957L57.447 42.3239L58.1377 42.0935L57.7923 41.7478ZM20.7223 15.2478C20.377 15.2478 19.9165 15.1326 19.5711 15.0174C17.7291 14.2109 16.9233 11.7913 17.8442 9.60217C18.535 7.87391 20.1467 6.72174 21.7585 6.72174C22.219 6.72174 22.5643 6.83695 22.9097 6.95217C24.7517 7.75869 25.5576 10.1783 24.6366 12.3674C23.9458 14.0956 22.3341 15.2478 20.7223 15.2478ZM44.7833 44.8587C43.0564 43.1304 32.9255 33.4522 21.298 36.563C21.1828 36.563 20.9526 36.6783 20.8375 36.6783C10.5914 39.5587 9.32506 44.9739 8.86456 46.8174H2.18736C2.99323 45.55 4.72009 45.4348 4.72009 45.4348H5.18059L5.29571 44.9739C5.29571 44.9739 5.75621 40.4804 9.09481 35.1804C12.4334 29.8804 16.4628 28.7283 16.4628 28.7283L16.9233 28.4978L16.693 28.037L14.2754 21.2391L15.6569 20.7783L15.3115 19.6261L11.5124 20.7783L3.7991 22.9674V14.9022C4.02935 15.0174 4.14447 15.2478 4.2596 15.4783C4.72009 16.2848 4.95034 17.0913 4.95034 17.0913V17.2065L5.29571 18.5891L6.44695 18.3587L6.21671 17.437L17.7291 14.9022C18.1896 15.363 18.6501 15.7087 19.2257 15.9391C19.6862 16.1696 20.2619 16.2848 20.8375 16.2848C22.219 16.2848 23.6005 15.5935 24.6366 14.4413C27.5147 14.787 35.6885 17.3217 37.991 17.7826C37.8758 18.4739 37.7607 18.8196 37.7607 18.8196L38.912 18.9348C38.912 18.9348 39.0271 16.4 40.4086 14.4413C41.0993 13.4043 42.2506 12.9435 42.8262 12.713V23.5435L27.7449 19.8565L27.1693 19.7413L27.0542 20.3174L25.7878 26.0783L25.6727 26.7696H26.3634C26.4786 26.7696 26.5937 26.7696 26.7088 26.7696C27.86 26.7696 30.7381 26.6543 37.7607 29.65C44.4379 32.4152 48.0068 37.9456 48.0068 37.9456L48.1219 38.4065H48.5824C48.5824 38.4065 50.7698 38.2913 53.0722 39.213C54.7991 39.9043 55.8352 40.9413 56.4108 41.6326L44.7833 44.8587Z" fill="#010000"/>
<path id="Vector_42" d="M24.6366 12.3673C25.5576 10.1782 24.7517 7.64342 22.9097 6.95211C22.5643 6.8369 22.1038 6.72168 21.7585 6.72168C20.1467 6.72168 18.6501 7.87385 17.8443 9.60211C16.9233 11.7912 17.7291 14.326 19.5711 15.0173C19.9165 15.1325 20.377 15.2478 20.7224 15.2478C22.3341 15.2478 23.9458 14.0956 24.6366 12.3673Z" fill="white"/>
</g>
</g>
</g>
</g>
<defs>
<clipPath id="clip0_5_223">
<rect width="255" height="53" fill="white" transform="translate(0 0.5)"/>
</clipPath>
</defs>
</svg>
