<svg width="237" height="46" viewBox="0 0 237 46" fill="none" xmlns="http://www.w3.org/2000/svg">
<g id="ciss_logo" clip-path="url(#clip0_5_220)">
<path id="Vector" fill-rule="evenodd" clip-rule="evenodd" d="M23.6294 0.5C10.7205 0.5 0 10.5635 0 23.0025C0 35.4415 10.7205 45.5 23.6294 45.5C36.5383 45.5 47.4555 35.4365 47.4555 23.0025C47.4555 10.5685 36.735 0.5 23.6294 0.5ZM15.7126 36.083C14.9814 36.083 14.4318 35.5368 14.4318 34.8101C14.4318 34.2638 14.9814 33.5421 15.7126 33.5421C16.4438 33.5421 16.9934 34.2638 16.9934 34.8101C16.9934 35.5368 16.4438 36.083 15.7126 36.083ZM32.232 36.083C31.4958 36.083 30.9512 35.5368 30.9512 34.8101C30.9512 34.2638 31.4958 33.5421 32.232 33.5421C32.9682 33.5421 33.5128 34.2638 33.5128 34.8101C33.5128 35.5368 32.9632 36.083 32.232 36.083ZM38.9184 28.5755C33.886 28.766 32.7262 29.1569 27.5021 32.6149C29.2468 29.7282 33.6943 26.651 36.9871 25.8842C37.9553 25.5033 37.7637 24.1552 36.7955 24.5411C28.2786 26.651 23.6344 31.0763 24.6026 42.9992H23.2462C23.8261 32.0386 21.3149 28.5755 11.0533 24.5411C10.0851 24.1552 9.30855 25.5033 10.2767 25.8842C13.1812 26.8415 18.2087 29.5378 19.9534 32.4245C14.926 28.9614 13.3729 28.766 8.34543 28.5755C7.1806 28.5755 6.21747 28.766 4.6694 28.9614V14.5378C6.60575 15.8859 11.0533 17.8054 13.3779 19.5394C18.602 14.9186 28.8585 15.1141 33.6943 19.9203L42.7911 14.5327V28.9564C41.243 28.7609 40.0833 28.5705 38.9184 28.5705V28.5755ZM88.643 28.9313C88.522 31.4973 87.8261 33.7626 86.5554 35.7322C85.2847 37.7018 83.4946 39.2203 81.1902 40.3029C78.8907 41.3854 76.2585 41.9216 73.3036 41.9216C68.4275 41.9216 64.5901 40.343 61.7864 37.1856C58.9827 34.0282 57.5809 29.5728 57.5809 23.8144V21.9901C57.5809 18.3767 58.2112 15.2143 59.4769 12.508C60.7426 9.79669 62.563 7.70682 64.943 6.22837C67.3231 4.74992 70.0713 4.0132 73.1977 4.0132C77.7007 4.0132 81.3162 5.19095 84.0543 7.54644C86.7874 9.90194 88.3455 13.1495 88.7187 17.2842H79.7984C79.7278 15.0389 79.163 13.4252 78.089 12.4479C77.02 11.4706 75.3862 10.9795 73.1977 10.9795C71.0092 10.9795 69.3402 11.8064 68.3064 13.4602C67.2727 15.1141 66.7281 17.7553 66.6777 21.3887V23.9948C66.6777 27.929 67.1769 30.7406 68.1703 32.4295C69.1637 34.1184 70.8731 34.9604 73.3036 34.9604C75.361 34.9604 76.9292 34.4793 78.0184 33.517C79.1076 32.5548 79.6824 31.0262 79.753 28.9313H88.643ZM100.317 41.4155H91.3963V4.54945H100.317V41.4205V41.4155ZM123.583 31.6176C123.583 30.3196 123.119 29.3072 122.196 28.5805C121.268 27.8538 119.645 27.1021 117.315 26.3253C114.985 25.5484 113.084 24.7967 111.607 24.07C106.801 21.7245 104.396 18.497 104.396 14.3974C104.396 12.3527 104.996 10.5535 106.191 8.98981C107.386 7.42616 109.081 6.21333 111.274 5.3413C113.468 4.47427 115.928 4.03826 118.661 4.03826C121.394 4.03826 123.719 4.50936 125.832 5.45657C127.945 6.40378 129.589 7.74691 130.764 9.49599C131.938 11.2451 132.523 13.2397 132.523 15.485H123.608C123.608 13.9815 123.144 12.8187 122.221 11.9918C121.294 11.1649 120.043 10.7489 118.465 10.7489C116.886 10.7489 115.606 11.0997 114.683 11.8014C113.755 12.503 113.296 13.3951 113.296 14.4726C113.296 15.4198 113.805 16.2768 114.824 17.0436C115.843 17.8104 117.633 18.6072 120.199 19.4242C122.766 20.2411 124.869 21.1231 126.518 22.0703C130.526 24.3657 132.528 27.5331 132.528 31.5675C132.528 34.79 131.308 37.3259 128.857 39.1652C126.412 41.0045 123.058 41.9267 118.792 41.9267C115.787 41.9267 113.064 41.3904 110.629 40.3179C108.193 39.2454 106.358 37.777 105.127 35.9126C103.897 34.0483 103.282 31.8983 103.282 29.4676H112.252C112.252 31.4422 112.767 32.9006 113.795 33.8378C114.824 34.775 116.493 35.2411 118.803 35.2411C120.28 35.2411 121.45 34.9253 122.307 34.2938C123.164 33.6624 123.593 32.7703 123.593 31.6226L123.583 31.6176ZM155.205 31.6176C155.205 30.3196 154.741 29.3072 153.818 28.5805C152.89 27.8538 151.267 27.1021 148.937 26.3253C146.607 25.5484 144.706 24.7967 143.229 24.07C138.423 21.7245 136.018 18.497 136.018 14.3974C136.018 12.3527 136.618 10.5535 137.813 8.98981C139.013 7.42616 140.707 6.21333 142.896 5.3413C145.089 4.47427 147.55 4.03826 150.283 4.03826C153.016 4.03826 155.341 4.50936 157.454 5.45657C159.567 6.40378 161.21 7.74691 162.385 9.49599C163.56 11.2451 164.145 13.2397 164.145 15.485H155.23C155.23 13.9815 154.766 12.8187 153.843 11.9918C152.915 11.1649 151.665 10.7489 150.087 10.7489C148.508 10.7489 147.227 11.0997 146.305 11.8014C145.377 12.503 144.918 13.3951 144.918 14.4726C144.918 15.4198 145.427 16.2768 146.446 17.0436C147.464 17.8104 149.26 18.6072 151.821 19.4242C154.388 20.2411 156.491 21.1231 158.14 22.0703C162.148 24.3657 164.15 27.5331 164.15 31.5675C164.15 34.79 162.925 37.3259 160.479 39.1652C158.034 41.0045 154.68 41.9267 150.414 41.9267C147.409 41.9267 144.686 41.3904 142.25 40.3179C139.815 39.2454 137.979 37.777 136.749 35.9126C135.519 34.0483 134.903 31.8983 134.903 29.4676H143.874C143.874 31.4422 144.388 32.9006 145.417 33.8378C146.446 34.775 148.115 35.2411 150.424 35.2411C151.902 35.2411 153.072 34.9253 153.929 34.2938C154.786 33.6624 155.215 32.7703 155.215 31.6226L155.205 31.6176Z" fill="#E42631"/>
<path id="Vector_2" d="M194.874 8.88952H184.013V41.4956H178.88V8.88952H168.285V4.48926H194.874V8.89454V8.88952ZM221.06 8.37833C224.464 10.9744 226.169 15.7806 226.169 22.802C226.169 29.8234 224.464 34.4692 221.06 37.2808C217.657 40.0923 213.522 41.4956 208.656 41.4956H199.741V4.48926H207.521C213.144 4.48926 217.657 5.78729 221.06 8.38334V8.37833ZM204.874 8.45852V37.5163H209.034C212.493 37.5163 215.302 36.4538 217.465 34.3289C219.628 32.2039 220.708 28.3499 220.708 22.7719C220.708 18.8478 220.148 15.8307 219.033 13.7258C217.914 11.6209 216.492 10.2126 214.762 9.51097C213.033 8.80934 210.996 8.45852 208.656 8.45852H204.874ZM237 41.4956H231.867V4.48926H237V41.5006V41.4956Z" fill="#9A9B9B"/>
</g>
<defs>
<clipPath id="clip0_5_220">
<rect width="237" height="45" fill="white" transform="translate(0 0.5)"/>
</clipPath>
</defs>
</svg>
