<?xml version="1.0" encoding="UTF-8"?>
<!DOCTYPE svg PUBLIC "-//W3C//DTD SVG 1.1//EN" "http://www.w3.org/Graphics/SVG/1.1/DTD/svg11.dtd">
<svg xmlns="http://www.w3.org/2000/svg" xml:space="preserve" width="1000px" height="148px" version="1.1" style="shape-rendering:geometricPrecision; text-rendering:geometricPrecision; image-rendering:optimizeQuality; fill-rule:evenodd; clip-rule:evenodd"
viewBox="-100 -100 1202.23 348.26"
 xmlns:xlink="http://www.w3.org/1999/xlink">
 <defs>
  <style type="text/css">
    .fil0 {fill:#1A9B9F;fill-rule:nonzero}
    .fil1 {fill:#42535a;fill-rule:nonzero}
  </style>
 </defs>
 <g id="layer">
  <path class="fil0" d="M73.4 146.46l-73.4 0 0 -73.06c0,-41.85 31.34,-73.4 72.89,-73.4 42.83,0 73.91,30.73 73.91,73.07 0,42.52 -30.87,73.39 -73.4,73.39zm-47.55 -25.84l47.55 0c28,0 47.55,-19.56 47.55,-47.55 0,-28.25 -19.31,-47.23 -48.06,-47.23 -27.7,0 -47.04,19.56 -47.04,47.56l0 47.22z"/>
  <polygon class="fil1" points="212.83,146.47 212.83,1.4 240.42,1.4 240.42,120.67 279.77,120.67 279.77,146.47 "/>
  <path class="fil1" d="M341.94 38.52c33.54,0 55.57,23.41 55.57,54.77 0,31.15 -22.82,54.97 -55.57,54.97 -33.14,0 -55.37,-23.22 -55.37,-54.57 0,-31.56 23.42,-55.17 55.37,-55.17zm0.2 85.73c17.46,0 28.78,-13.1 28.78,-30.76 0,-17.66 -11.91,-30.96 -28.98,-30.96 -17.46,0 -28.77,13.09 -28.77,30.96 0,17.86 11.9,30.76 28.97,30.76z"/>
  <path class="fil1" d="M483.99 115.52l14.69 17.85c-6.35,6.75 -18.86,14.89 -37.11,14.89 -33.54,0 -54.98,-23.81 -54.98,-54.58 0,-30.95 23.03,-55.16 54.78,-55.16 19.25,0 30.96,7.74 37.31,14.29l-15.28 18.45c-4.37,-4.17 -11.32,-8.73 -21.83,-8.73 -17.47,0 -28.38,13.3 -28.38,30.95 0,19.06 13.29,30.77 28.58,30.77 10.71,0 17.46,-4.77 22.22,-8.73z"/>
  <path class="fil1" d="M556.87 38.52c33.53,0 55.56,23.41 55.56,54.77 0,31.15 -22.82,54.97 -55.56,54.97 -33.15,0 -55.38,-23.22 -55.38,-54.57 0,-31.56 23.42,-55.17 55.38,-55.17zm0.19 85.73c17.47,0 28.78,-13.1 28.78,-30.76 0,-17.66 -11.91,-30.96 -28.97,-30.96 -17.47,0 -28.78,13.09 -28.78,30.96 0,17.86 11.91,30.76 28.97,30.76z"/>
  <path class="fil1" d="M657.92 78.41c4.76,1.38 9.13,2.18 14.48,3.76 17.07,5.16 25.41,13.5 25.41,32.75 0,21.63 -17.86,32.95 -38.7,32.95 -29.37,0 -38.5,-17.27 -37.91,-35.73l25.41 0c0,7.54 2.58,14.29 12.89,14.29 6.95,0 12.51,-3.37 12.51,-9.52 0,-6.16 -3.18,-8.94 -10.52,-10.92 -5.75,-1.59 -10.32,-2.58 -16.07,-4.76 -14.69,-5.36 -22.04,-15.28 -22.04,-31.36 0,-17.86 15.09,-30.95 36.32,-30.95 22.43,0 35.73,11.31 35.92,33.53l-24.41 0c-0.19,-8.14 -3.97,-12.9 -12.1,-12.9 -6.35,0 -10.52,3.58 -10.52,8.93 0,5.16 2.98,8.14 9.33,9.93z"/>
  <polygon class="fil1" points="714.58,146.47 714.58,1.4 742.16,1.4 742.16,120.67 781.51,120.67 781.51,146.47 "/>
  <path class="fil1" d="M827.33 76.82c9.53,0 16.07,2.58 18.85,4.36l0 -5.35c0,-9.13 -3.97,-15.68 -13.89,-15.68 -9.92,0 -12.9,6.35 -12.9,12.3l-24.81 0c0.6,-20.04 12.7,-33.34 37.71,-33.34 30.56,0 40.09,16.87 40.09,40.49l0 66.87 -22.23 0 0 -6.74c-2.98,3.17 -10.12,8.14 -22.42,8.14 -21.24,0 -36.92,-14.1 -36.92,-36.13 0,-19.84 14.49,-34.92 36.52,-34.92zm3.97 50.01c8.73,0 15.28,-6.36 15.28,-15.28 0,-8.93 -6.55,-15.09 -15.48,-15.09 -9.13,0 -15.28,6.56 -15.28,15.09 0,8.92 6.35,15.28 15.48,15.28z"/>
  <path class="fil1" d="M916.49 146.47l-25.2 0 0 -145.06 26.59 0 0 49.41c5.76,-6.16 17.27,-12.3 31.76,-12.3 31.95,0 52.59,22.03 52.59,54.77 0,31.35 -21.63,54.97 -54.38,54.97 -13.69,0 -25.21,-5.75 -31.36,-11.91l0 10.12zm29.97 -22.02c18.06,0 29.17,-13.1 29.17,-31.16 0,-18.06 -11.71,-31.16 -29.37,-31.16 -18.06,0 -29.17,13.1 -29.17,31.16 0,18.26 11.71,31.16 29.37,31.16z"/>
 </g>
</svg>
