<?xml version="1.0" encoding="utf-8"?>
<!-- Generator: Adobe Illustrator 21.1.0, SVG Export Plug-In . SVG Version: 6.00 Build 0)  -->
<!DOCTYPE svg PUBLIC "-//W3C//DTD SVG 1.1//EN" "http://www.w3.org/Graphics/SVG/1.1/DTD/svg11.dtd">
<svg version="1.1"
	 id="svg2" inkscape:version="0.48.2 r9819" sodipodi:docname="logo_yellowmap_4c.svg" xmlns:cc="http://creativecommons.org/ns#" xmlns:dc="http://purl.org/dc/elements/1.1/" xmlns:inkscape="http://www.inkscape.org/namespaces/inkscape" xmlns:rdf="http://www.w3.org/1999/02/22-rdf-syntax-ns#" xmlns:sodipodi="http://sodipodi.sourceforge.net/DTD/sodipodi-0.dtd" xmlns:svg="http://www.w3.org/2000/svg"
	 xmlns="http://www.w3.org/2000/svg" xmlns:xlink="http://www.w3.org/1999/xlink" x="0px" y="0px" viewBox="0 0 672.8 144.1"
	 style="enable-background:new 0 0 672.8 144.1;" xml:space="preserve">
<style type="text/css">
	.st0{fill:#18345C;}
	.st1{fill:#F6B801;}
</style>
<sodipodi:namedview  bordercolor="#666666" borderopacity="1" gridtolerance="10" guidetolerance="10" id="namedview4" inkscape:current-layer="g12" inkscape:cx="-90.925535" inkscape:cy="55.527279" inkscape:pageopacity="0" inkscape:pageshadow="2" inkscape:window-height="988" inkscape:window-maximized="1" inkscape:window-width="1680" inkscape:window-x="-8" inkscape:window-y="-8" inkscape:zoom="0.75886273" objecttolerance="10" pagecolor="#ffffff" showgrid="false">
	</sodipodi:namedview>
<g id="g10" transform="matrix(1.25,0,0,-1.25,0,144.04995)" inkscape:groupmode="layer" inkscape:label="logo_yellowmap_ohne_4c_759_Steffi">
	<g id="g12">
		<g id="g2987" transform="translate(14.000583,13.197184)">
			<path id="path14" inkscape:connector-curvature="0" class="st0" d="M73.5,84.6c-3.7,6-21.7,5.1-39.2,0.7c3.1-1.7,5.9-4.1,8.2-7
				c9.7-12.1,7.8-29.9-4.4-39.6c-8.7-7-20.3-7.9-29.7-3.5C19.9,17.1,36.9-0.9,41.7,0C50.4,1.7,80.8,72.8,73.5,84.6"/>
			<path class="st1" d="M36.4,73.9c-7.3,8.7-20.3,9.9-29,2.6c-8.7-7.3-9.9-20.2-2.6-29c7.3-8.7,20.3-9.9,29-2.6
				C42.5,52.2,43.6,65.2,36.4,73.9z M32.5,56.3c-3.9-3.2-9.7-2.7-12.9,1.2c-3.2,3.9-2.7,9.7,1.2,12.9c3.9,3.2,9.7,2.7,12.9-1.2
				C36.9,65.4,36.4,59.6,32.5,56.3z"/>
			<path id="path18" inkscape:connector-curvature="0" class="st1" d="M117.5,39.6V18.5c0-0.3-0.1-0.6-0.3-0.8
				c-0.2-0.2-0.5-0.5-1-0.6c-0.5-0.2-1.1-0.3-1.9-0.4c-0.8-0.1-1.8-0.1-2.9-0.1c-1.2,0-2.2,0-3,0.1c-0.8,0.1-1.4,0.2-1.9,0.4
				c-0.5,0.1-0.8,0.4-1,0.6c-0.2,0.2-0.3,0.5-0.3,0.8v21.1L88.8,72.4c-0.6,1.1-1,2-1.1,2.7c-0.2,0.6-0.1,1.1,0.3,1.4
				c0.3,0.3,1,0.5,2,0.6c1,0.1,2.3,0.1,4,0.1c1.4,0,2.6,0,3.4-0.1c0.9-0.1,1.5-0.2,2-0.3c0.5-0.2,0.9-0.4,1.1-0.7
				c0.2-0.3,0.4-0.6,0.7-1.1l6.7-14.8c0.6-1.4,1.3-2.9,1.9-4.5c0.6-1.6,1.3-3.2,1.9-5h0.1c0.6,1.7,1.2,3.3,1.8,4.9
				c0.6,1.6,1.2,3.1,1.8,4.5l6.6,14.7c0.1,0.5,0.3,0.9,0.6,1.2c0.2,0.3,0.6,0.5,1,0.7c0.5,0.2,1.1,0.3,1.9,0.4
				c0.8,0.1,1.9,0.1,3.2,0.1c1.8,0,3.1,0,4.1-0.1c1-0.1,1.6-0.3,2-0.6c0.3-0.3,0.4-0.8,0.3-1.5c-0.2-0.6-0.6-1.5-1.1-2.6
				C133.9,72.4,117.5,39.6,117.5,39.6z M171,40.3c0-1.4-0.3-2.5-0.9-3.2c-0.6-0.7-1.5-1-2.6-1h-25.2c0-1.8,0.2-3.4,0.6-4.8
				c0.4-1.4,1.1-2.7,2-3.7c0.9-1,2.1-1.8,3.5-2.3c1.4-0.5,3.2-0.8,5.2-0.8c2,0,3.8,0.2,5.4,0.4c1.6,0.3,2.9,0.6,4,1
				c1.1,0.3,2.1,0.7,2.8,1c0.7,0.3,1.3,0.4,1.8,0.4c0.3,0,0.5-0.1,0.7-0.2c0.2-0.1,0.3-0.3,0.5-0.6c0.1-0.3,0.2-0.7,0.3-1.2
				c0-0.5,0.1-1.1,0.1-1.9c0-0.7,0-1.3-0.1-1.7c0-0.5-0.1-0.9-0.1-1.2c0-0.3-0.1-0.6-0.3-0.9c-0.1-0.2-0.3-0.5-0.5-0.7
				c-0.2-0.2-0.7-0.5-1.6-0.9c-0.9-0.4-2-0.7-3.4-1.1c-1.4-0.3-3-0.7-4.8-0.9c-1.8-0.3-3.7-0.4-5.8-0.4c-3.7,0-6.9,0.5-9.7,1.4
				c-2.8,0.9-5.1,2.3-6.9,4.2c-1.9,1.9-3.2,4.3-4.1,7.1c-0.9,2.9-1.4,6.3-1.4,10.1c0,3.7,0.5,7,1.4,9.9c0.9,3,2.3,5.5,4.2,7.5
				c1.8,2.1,4.1,3.6,6.7,4.7c2.6,1.1,5.6,1.6,8.8,1.6c3.5,0,6.4-0.5,8.9-1.5c2.5-1,4.5-2.4,6.1-4.2c1.6-1.8,2.7-3.9,3.5-6.4
				c0.7-2.5,1.1-5.2,1.1-8.1L171,40.3L171,40.3z M159.7,43.7c0.1,3.3-0.6,5.9-2,7.7c-1.4,1.9-3.6,2.8-6.5,2.8
				c-1.5,0-2.8-0.3-3.9-0.8c-1.1-0.6-2-1.3-2.7-2.2c-0.7-0.9-1.3-2.1-1.7-3.3c-0.4-1.3-0.6-2.7-0.7-4.1H159.7z M190.8,18.4
				c0-0.3-0.1-0.6-0.3-0.8c-0.2-0.2-0.5-0.4-0.9-0.6c-0.5-0.2-1-0.3-1.8-0.3c-0.7-0.1-1.7-0.1-2.8-0.1c-1.1,0-2.1,0-2.8,0.1
				c-0.7,0.1-1.3,0.2-1.8,0.3c-0.5,0.1-0.8,0.3-1,0.6c-0.2,0.2-0.3,0.5-0.3,0.8v61c0,0.3,0.1,0.6,0.3,0.8c0.2,0.2,0.5,0.5,1,0.6
				c0.4,0.2,1,0.3,1.8,0.4c0.7,0.1,1.7,0.1,2.8,0.1c1.2,0,2.1,0,2.8-0.1c0.7-0.1,1.3-0.2,1.8-0.4c0.4-0.2,0.8-0.4,0.9-0.6
				c0.2-0.3,0.3-0.5,0.3-0.8C190.8,79.4,190.8,18.4,190.8,18.4z M212.7,18.4c0-0.3-0.1-0.6-0.3-0.8c-0.2-0.2-0.5-0.4-0.9-0.6
				c-0.5-0.2-1-0.3-1.8-0.3c-0.7-0.1-1.7-0.1-2.8-0.1c-1.1,0-2.1,0-2.8,0.1c-0.7,0.1-1.3,0.2-1.8,0.3c-0.5,0.1-0.8,0.3-0.9,0.6
				c-0.2,0.2-0.3,0.5-0.3,0.8v61c0,0.3,0.1,0.6,0.3,0.8c0.2,0.2,0.5,0.5,0.9,0.6c0.4,0.2,1,0.3,1.8,0.4c0.7,0.1,1.7,0.1,2.8,0.1
				c1.2,0,2.1,0,2.8-0.1c0.7-0.1,1.3-0.2,1.8-0.4c0.4-0.2,0.8-0.4,0.9-0.6c0.2-0.3,0.3-0.5,0.3-0.8
				C212.7,79.4,212.7,18.4,212.7,18.4z M264.7,39.5c0-3.5-0.5-6.8-1.4-9.7c-0.9-2.9-2.3-5.4-4.2-7.5c-1.9-2.1-4.2-3.7-7.1-4.9
				c-2.9-1.1-6.2-1.7-10-1.7c-3.7,0-6.9,0.5-9.6,1.5c-2.7,1-5,2.5-6.8,4.5c-1.8,2-3.1,4.3-4,7.2c-0.9,2.8-1.3,6.1-1.3,9.7
				c0,3.5,0.5,6.8,1.4,9.7c0.9,2.9,2.4,5.4,4.2,7.5c1.9,2.1,4.2,3.7,7.1,4.8c2.8,1.2,6.1,1.7,10,1.7c3.7,0,6.9-0.5,9.6-1.5
				c2.7-1,5-2.5,6.8-4.4c1.8-1.9,3.1-4.4,4-7.2C264.3,46.5,264.7,43.2,264.7,39.5L264.7,39.5z M252.7,39.1c0,2-0.2,3.9-0.5,5.6
				c-0.3,1.7-0.9,3.2-1.6,4.5c-0.8,1.3-1.8,2.3-3.1,3c-1.3,0.7-2.9,1.1-4.8,1.1c-1.7,0-3.2-0.3-4.5-1c-1.3-0.6-2.4-1.6-3.2-2.8
				c-0.8-1.2-1.5-2.7-1.9-4.4c-0.4-1.7-0.6-3.7-0.6-5.9c0-2,0.2-3.9,0.5-5.6c0.3-1.7,0.9-3.2,1.6-4.5c0.8-1.3,1.8-2.2,3.1-2.9
				c1.3-0.7,2.9-1,4.8-1c1.8,0,3.3,0.3,4.6,1c1.3,0.6,2.4,1.6,3.2,2.8c0.8,1.2,1.4,2.7,1.9,4.4C252.5,34.9,252.7,36.9,252.7,39.1z
				 M335.6,59.9c0-0.3,0-0.8-0.1-1.2c-0.1-0.5-0.3-1.2-0.5-2.1l-11-37.4c-0.2-0.5-0.4-0.9-0.6-1.3c-0.3-0.3-0.6-0.6-1.1-0.8
				c-0.5-0.2-1.2-0.3-2.2-0.4c-0.9-0.1-2.2-0.1-3.7-0.1c-1.5,0-2.7,0-3.7,0.1c-1,0.1-1.7,0.2-2.2,0.4c-0.5,0.2-0.9,0.4-1.2,0.8
				c-0.2,0.3-0.4,0.7-0.6,1.2l-7,25.2l-0.1,0.4l-0.1-0.4L295,19.1c-0.1-0.5-0.3-0.9-0.5-1.3c-0.2-0.3-0.6-0.6-1.2-0.8
				c-0.6-0.2-1.3-0.3-2.3-0.4c-1-0.1-2.2-0.1-3.7-0.1c-1.5,0-2.8,0-3.7,0.1c-0.9,0.1-1.7,0.2-2.2,0.4c-0.5,0.2-0.9,0.4-1.2,0.8
				c-0.2,0.3-0.4,0.7-0.6,1.2l-10.9,37.4c-0.3,0.9-0.5,1.6-0.5,2.1c-0.1,0.5-0.1,0.9-0.1,1.3c0,0.3,0.1,0.6,0.2,0.8
				c0.2,0.2,0.5,0.4,0.9,0.6c0.5,0.1,1.1,0.2,1.8,0.3c0.7,0.1,1.7,0.1,2.9,0.1c1.2,0,2.2,0,3-0.1c0.8-0.1,1.4-0.2,1.8-0.3
				c0.4-0.2,0.7-0.4,0.9-0.6c0.2-0.3,0.3-0.6,0.4-0.9l8.2-30.4l0.1-0.6l0.1,0.6l7.7,30.4c0.1,0.4,0.2,0.7,0.4,0.9
				c0.2,0.3,0.5,0.5,0.9,0.6c0.4,0.1,1,0.3,1.7,0.3c0.7,0.1,1.7,0.1,2.8,0.1c1.1,0,2.1,0,2.8-0.1c0.7-0.1,1.3-0.2,1.7-0.3
				c0.4-0.1,0.7-0.3,0.9-0.6c0.2-0.2,0.3-0.5,0.4-0.8l8.3-30.6l0.1-0.5l0.1,0.6l7.9,30.4c0.1,0.4,0.2,0.7,0.4,0.9
				c0.2,0.3,0.5,0.5,0.9,0.6c0.4,0.1,1,0.3,1.8,0.3c0.7,0.1,1.7,0.1,2.8,0.1c1.1,0,2.1,0,2.8-0.1c0.7-0.1,1.3-0.2,1.7-0.3
				c0.4-0.1,0.7-0.3,0.9-0.6C335.5,60.5,335.6,60.2,335.6,59.9"/>
			<path id="path20" inkscape:connector-curvature="0" class="st0" d="M412.3,18.5c0-0.3-0.1-0.6-0.3-0.8c-0.2-0.2-0.5-0.5-0.9-0.6
				c-0.4-0.2-1-0.3-1.8-0.4c-0.7-0.1-1.7-0.1-2.8-0.1c-1.1,0-2,0-2.8,0.1c-0.7,0.1-1.3,0.2-1.8,0.4c-0.4,0.1-0.7,0.4-0.9,0.6
				c-0.2,0.2-0.3,0.5-0.3,0.8v48.9h-0.1l-17.4-48.8c-0.1-0.4-0.3-0.7-0.6-1c-0.3-0.3-0.7-0.5-1.1-0.6c-0.5-0.2-1.1-0.3-1.8-0.3
				c-0.7,0-1.6-0.1-2.7-0.1c-1.1,0-1.9,0-2.7,0.1c-0.7,0.1-1.4,0.2-1.8,0.4c-0.5,0.2-0.9,0.4-1.1,0.6c-0.3,0.2-0.5,0.5-0.6,0.9
				l-16.8,48.8h-0.1V18.5c0-0.3-0.1-0.6-0.3-0.8c-0.2-0.2-0.5-0.5-1-0.6c-0.5-0.2-1-0.3-1.8-0.4c-0.7-0.1-1.7-0.1-2.8-0.1
				c-1.1,0-2,0-2.8,0.1c-0.7,0.1-1.3,0.2-1.8,0.4c-0.5,0.1-0.8,0.4-0.9,0.6c-0.2,0.2-0.3,0.5-0.3,0.8V72c0,1.6,0.4,2.8,1.2,3.6
				c0.8,0.8,1.9,1.3,3.3,1.3h8c1.4,0,2.6-0.1,3.7-0.3c1-0.2,1.9-0.6,2.6-1.2c0.7-0.5,1.4-1.2,1.9-2.1c0.5-0.9,0.9-2,1.3-3.3l13-35.8
				h0.2l13.4,35.7c0.4,1.3,0.9,2.4,1.3,3.3c0.5,0.9,1,1.6,1.7,2.2c0.6,0.6,1.4,1,2.2,1.2c0.9,0.2,1.9,0.3,3,0.3h8.2
				c0.8,0,1.6-0.1,2.2-0.3c0.6-0.2,1.1-0.5,1.5-1c0.4-0.4,0.7-0.9,0.9-1.5c0.2-0.6,0.3-1.3,0.3-2.1C412.3,72,412.3,18.5,412.3,18.5z
				 M458.4,18.3c0-0.4-0.2-0.8-0.5-1c-0.3-0.2-0.8-0.4-1.5-0.5c-0.7-0.1-1.6-0.2-2.9-0.2c-1.4,0-2.4,0.1-3,0.2
				c-0.6,0.1-1.1,0.3-1.3,0.5c-0.3,0.3-0.4,0.6-0.4,1v3.3c-1.7-1.8-3.6-3.2-5.8-4.3c-2.2-1-4.6-1.5-7.3-1.5c-2.2,0-4.2,0.3-6.1,0.9
				c-1.8,0.6-3.4,1.4-4.8,2.5c-1.3,1.1-2.4,2.5-3.1,4.2c-0.7,1.7-1.1,3.6-1.1,5.8c0,2.4,0.5,4.5,1.4,6.3c1,1.8,2.4,3.2,4.2,4.4
				c1.9,1.2,4.2,2,7,2.6c2.8,0.6,6,0.8,9.7,0.8h4v2.5c0,1.3-0.1,2.4-0.4,3.4c-0.3,1-0.7,1.8-1.3,2.4c-0.6,0.7-1.4,1.1-2.4,1.4
				c-1,0.3-2.2,0.5-3.7,0.5c-1.9,0-3.7-0.2-5.2-0.6c-1.5-0.4-2.9-0.9-4.1-1.4c-1.2-0.5-2.2-1-2.9-1.4c-0.8-0.4-1.4-0.6-1.9-0.6
				c-0.3,0-0.6,0.1-0.9,0.3c-0.2,0.2-0.5,0.5-0.6,0.9c-0.2,0.4-0.3,0.9-0.4,1.5c-0.1,0.6-0.1,1.2-0.1,2c0,0.9,0.1,1.7,0.2,2.3
				c0.2,0.6,0.5,1.1,0.9,1.5c0.4,0.5,1.2,1,2.3,1.5c1.1,0.5,2.4,1,3.8,1.5c1.4,0.5,3,0.8,4.8,1.1c1.7,0.3,3.5,0.4,5.3,0.4
				c3.2,0,6-0.3,8.3-0.9c2.3-0.6,4.2-1.6,5.7-2.9c1.5-1.3,2.6-3,3.2-5.1c0.7-2.1,1-4.5,1-7.4C458.4,46.1,458.4,18.3,458.4,18.3z
				 M446.9,36h-4.5c-1.9,0-3.5-0.1-4.8-0.4c-1.3-0.3-2.4-0.7-3.2-1.2c-0.8-0.6-1.4-1.2-1.8-2c-0.4-0.8-0.6-1.7-0.6-2.7
				c0-1.7,0.5-3.1,1.6-4.1c1.1-1,2.6-1.5,4.6-1.5c1.6,0,3.2,0.4,4.5,1.2s2.8,2.1,4.2,3.7C446.9,29,446.9,36,446.9,36z M510.2,39.7
				c0-3.7-0.4-7-1.2-10c-0.8-3-1.9-5.5-3.5-7.5c-1.5-2.1-3.4-3.7-5.7-4.8c-2.3-1.1-4.8-1.7-7.8-1.7c-1.2,0-2.3,0.1-3.3,0.3
				c-1,0.2-2,0.6-2.9,1.1c-0.9,0.5-1.9,1.1-2.8,1.8c-0.9,0.7-1.9,1.5-2.9,2.5V2c0-0.3-0.1-0.6-0.3-0.8c-0.2-0.2-0.5-0.5-1-0.6
				c-0.5-0.2-1-0.3-1.8-0.4C476.5,0,475.6,0,474.4,0c-1.1,0-2.1,0-2.8,0.1c-0.7,0.1-1.3,0.2-1.8,0.4c-0.5,0.2-0.8,0.4-0.9,0.6
				c-0.2,0.2-0.3,0.5-0.3,0.8v57.8c0,0.3,0.1,0.6,0.2,0.8c0.2,0.2,0.4,0.4,0.8,0.6c0.4,0.2,0.9,0.3,1.5,0.3c0.6,0.1,1.4,0.1,2.4,0.1
				c0.9,0,1.7,0,2.3-0.1c0.6-0.1,1.1-0.2,1.5-0.3c0.4-0.2,0.7-0.3,0.8-0.6c0.1-0.2,0.2-0.5,0.2-0.8v-4.9c1.2,1.2,2.4,2.3,3.6,3.3
				c1.2,0.9,2.3,1.7,3.5,2.4c1.2,0.6,2.5,1.1,3.7,1.4c1.3,0.3,2.7,0.5,4.1,0.5c3,0,5.6-0.6,7.8-1.8c2.1-1.2,3.9-2.8,5.2-4.9
				c1.3-2.1,2.3-4.5,2.9-7.2C509.9,45.8,510.2,42.9,510.2,39.7L510.2,39.7z M498.1,38.9c0,1.8-0.1,3.5-0.4,5.1
				c-0.3,1.6-0.7,3.1-1.3,4.3c-0.6,1.3-1.5,2.3-2.5,3c-1,0.8-2.3,1.1-3.9,1.1c-0.8,0-1.5-0.1-2.3-0.3c-0.8-0.2-1.5-0.6-2.3-1.1
				c-0.8-0.5-1.6-1.2-2.4-2c-0.8-0.8-1.7-1.9-2.6-3.1V32.2c1.6-2.1,3.2-3.7,4.7-4.8c1.5-1.1,3-1.7,4.6-1.7c1.5,0,2.8,0.4,3.9,1.2
				c1.1,0.8,1.9,1.8,2.6,3c0.7,1.2,1.2,2.7,1.5,4.2C497.9,35.7,498.1,37.3,498.1,38.9"/>
		</g>
	</g>
</g>
</svg>
