<svg width="244" height="73" viewBox="0 0 244 73" fill="none" xmlns="http://www.w3.org/2000/svg">
<rect width="244" height="73" fill="#1E1E1E"/>
<g id="Index" clip-path="url(#clip0_0_1)">
<rect width="1168" height="3708" transform="translate(-463 -3343)" fill="white"/>
<g id="cooperationPartner">
<g id="partner">
<g id="logos">
<g id="Universita&#204;&#136;t_Duisburg-Essen_logo 1" clip-path="url(#clip1_0_1)">
<g id="Ebene_x0020_1">
<path id="Vector" d="M0.5 72.9999H243.5V0.000488281H0.5V72.9999ZM1.48758 0.986708V72.0137H242.512V0.986708H1.48758Z" fill="#324189"/>
<path id="Vector_2" d="M12.3986 21.8502C12.3986 22.5662 12.4306 23.478 13.2024 24.2051C13.6913 24.6606 14.5499 24.8685 15.3865 24.8685C16.1145 24.8685 16.7988 24.7061 17.353 24.2592C18.1685 23.5969 18.1789 22.4468 18.1789 21.9691V16.6958H16.408V21.9587C16.408 23.4128 15.6256 23.4128 15.2885 23.4128C14.2128 23.4128 14.2128 22.4253 14.2128 21.9476V16.6958H12.3986L12.3986 21.8502ZM20.2265 24.6606H21.8348V20.9274C21.8348 20.7213 21.791 19.7123 21.7806 19.4844H21.8348C22.2478 20.4504 22.2583 20.483 22.4322 20.7975L24.5514 24.6606H25.9859V16.6957H24.3777V19.6581C24.3777 19.9616 24.3777 20.0268 24.4103 20.5698L24.4534 21.3725H24.3992C24.3666 21.3184 24.258 21.0253 24.2253 20.96C24.1495 20.7975 24.0404 20.5802 23.9535 20.4178L21.9001 16.6957H20.2265L20.2265 24.6606ZM29.8372 24.6624V16.6958H28.0767V24.6624H29.8372ZM35.4921 24.6606L37.8717 16.6958H36.1333L34.9484 20.9059C34.8183 21.3836 34.6877 21.8608 34.5686 22.3385H34.525C34.4597 22.0885 34.3295 21.633 34.1447 20.9816L32.9062 16.6957H31.1566L33.5904 24.6606L35.4921 24.6606ZM39.0605 24.6606H44.6677V23.1738H40.8211V21.2969H43.2874V19.8427H40.7989V18.1497H44.4174V16.6957H39.0605V24.6606ZM47.9863 17.9325C48.964 17.9325 49.1816 17.9325 49.4528 18.0303C49.8005 18.1603 49.9744 18.4317 49.9744 18.9852C49.9744 19.4192 49.9312 19.8532 49.377 20.0484C49.1268 20.1351 48.9751 20.1351 47.9863 20.1351L47.9863 17.9325ZM47.9863 21.4052H48.5726L50.0835 24.6606H51.9845L50.2462 21.1226C51.3656 20.7865 51.7675 20.0163 51.7675 19.0067C51.7675 16.8693 50.1266 16.6958 48.8339 16.6958H46.2585V24.6606H47.9863L47.9863 21.4052ZM58.4761 17.9651C57.8245 17.0102 56.9985 16.5326 55.8248 16.5326C54.1844 16.5326 53.2283 17.4769 53.2283 18.79C53.2283 20.3635 54.2713 20.8948 55.4771 21.3614C56.6724 21.8282 56.9985 21.9587 56.9985 22.5552C56.9985 23.2823 56.3141 23.4558 55.9338 23.4558C55.249 23.4558 54.7164 23.0433 54.423 22.3711L53.0649 23.2717C53.7818 24.5523 54.6079 24.89 56.0097 24.89C56.4116 24.89 57.0743 24.7706 57.5415 24.487C58.6721 23.803 58.6721 22.7399 58.6721 22.3815C58.6721 21.633 58.3244 21.1121 58.2264 20.9816C57.9114 20.5476 57.3462 20.222 56.8684 20.0484L55.8575 19.6796C55.3685 19.5059 54.8471 19.2783 54.8471 18.7136C54.8471 18.6269 54.8686 17.9435 55.7816 17.9435C56.4011 17.9435 56.9115 18.356 57.1611 18.8332L58.4761 17.9651ZM61.9908 24.6624V16.6958H60.2301V24.6624H61.9908ZM63.4404 16.6958V18.1497H65.4722V24.6606H67.2981V18.1497H69.2867V16.6958H63.4404ZM71.5291 15.9144H72.9092V14.6555H71.5291V15.9144ZM73.6484 15.9144H75.028V14.6555H73.6484V15.9144ZM74.1588 21.7197H72.3662L73.2354 18.1171H73.2786L74.1588 21.7197ZM72.1923 16.6958L69.9429 24.6606H71.6486L72.0616 23.076H74.5065L74.9084 24.6606H76.6147L74.311 16.6958H72.1923ZM77.2709 16.6958V18.1497H79.3028V24.6606H81.1286V18.1497H83.1172V16.6958H77.2709Z" fill="white"/>
<path id="Vector_3" d="M12.7264 45.3757C14.7582 45.3757 16.5216 45.3756 16.874 45.3425C17.8651 45.2586 18.6206 45.1747 19.5107 44.7221C20.8706 44.0341 21.1897 42.5583 21.2066 41.1666L21.2235 39.07C21.2403 36.3027 21.0222 35.4475 20.4843 34.6593C19.7791 33.6363 18.7215 33.0666 15.7155 33.0666H12.7264L12.7264 45.3757ZM15.4804 35.2465C16.9242 35.2465 17.5122 35.2465 18.0326 36.001C18.4526 36.6051 18.4863 37.6281 18.4863 39.1037C18.4863 39.5232 18.4526 40.1938 18.4526 40.6132C18.4526 42.9778 17.3442 43.1789 16.2527 43.1789H15.4804L15.4804 35.2465ZM29.9463 41.032C29.9463 42.1389 29.9964 43.5476 31.1887 44.6714C31.9442 45.3757 33.2714 45.6972 34.564 45.6972C35.6894 45.6972 36.7475 45.4456 37.6038 44.7552C38.8633 43.7322 38.8797 41.9548 38.8797 41.2168V33.0666H36.1426V41.1998C36.1426 43.4474 34.9339 43.4474 34.413 43.4474C32.7504 43.4474 32.7503 41.9211 32.7503 41.1829V33.0666H29.9463V41.032ZM50.6423 45.3785V33.0666H47.9221V45.3785H50.6423ZM67.2584 35.0287C66.2504 33.5524 64.9745 32.8149 63.1609 32.8149C60.6252 32.8149 59.1475 34.2737 59.1475 36.3027C59.1475 38.735 60.7593 39.5563 62.6232 40.2776C64.4705 40.9988 64.9745 41.1998 64.9745 42.1226C64.9745 43.2458 63.9164 43.5144 63.3289 43.5144C62.2708 43.5144 61.4477 42.877 60.9944 41.8372L58.8954 43.2289C60.0038 45.2079 61.2802 45.7311 63.4461 45.7311C64.0675 45.7311 65.0919 45.5463 65.814 45.1077C67.5605 44.051 67.5605 42.4076 67.5605 41.854C67.5605 40.6971 67.0233 39.8919 66.8722 39.6904C66.3852 39.0199 65.5119 38.5165 64.7728 38.2485L63.2112 37.6781C62.4557 37.4096 61.6495 37.0577 61.6495 36.1857C61.6495 36.0517 61.6828 34.9949 63.0938 34.9949C64.0505 34.9949 64.8399 35.6323 65.226 36.3703L67.2584 35.0287ZM75.7467 45.3757H79.7262C81.288 45.3757 82.3461 45.3086 83.2362 44.4034C84.0588 43.5813 84.1929 42.6592 84.1929 41.7533C84.1929 39.9421 83.0514 39.0537 82.2283 38.936V38.8521C83.1856 38.6343 83.9246 37.6781 83.9246 36.1856C83.9246 35.1626 83.5046 34.1228 82.5981 33.5693C81.8929 33.1335 80.8685 33.0666 79.8102 33.0666H75.7467V45.3757ZM78.3829 39.9758C79.3401 39.9758 80.2974 39.9758 80.6836 40.1267C81.3217 40.3947 81.4729 41.0827 81.4729 41.6694C81.4729 42.9272 80.8008 43.4305 79.7262 43.4305H78.3829V39.9758ZM78.3829 34.9611H79.609C80.1633 34.9611 81.2546 34.9611 81.2546 36.4542C81.2546 38.0137 80.5494 38.0807 78.3829 38.0807V34.9611ZM92.7151 41.032C92.7151 42.1389 92.7653 43.5476 93.9577 44.6714C94.713 45.3757 96.0402 45.6972 97.3329 45.6972C98.4582 45.6972 99.5163 45.4456 100.373 44.7553C101.632 43.7323 101.648 41.9548 101.648 41.2168V33.0666H98.9114V41.1998C98.9114 43.4474 97.7027 43.4474 97.1818 43.4474C95.5193 43.4474 95.5193 41.9211 95.5193 41.1829V33.0666H92.7151L92.7151 41.032ZM113.143 34.978C114.654 34.978 114.99 34.978 115.41 35.1289C115.947 35.3304 116.216 35.7493 116.216 36.6051C116.216 37.2757 116.149 37.9468 115.292 38.2485C114.906 38.3826 114.671 38.3826 113.143 38.3826L113.143 34.978ZM113.143 40.3447H114.049L116.384 45.3757H119.322L116.636 39.9089C118.365 39.3886 118.987 38.1978 118.987 36.6383C118.987 33.3346 116.451 33.0666 114.452 33.0666H110.473V45.3757H113.143L113.143 40.3447ZM127.223 40.9481C127.223 42.4744 127.391 43.4974 128.062 44.3527C128.869 45.3588 130.01 45.7141 131.253 45.7141C133.151 45.7141 133.705 45.074 134.058 44.6545H134.175L134.528 45.5126H135.737V38.936H131.606V40.982H133.05V41.8203C133.05 42.2735 133.05 43.4306 131.64 43.4306C130.313 43.4306 130.01 42.4407 130.01 40.831V36.957C130.01 36.2358 130.111 35.0287 131.522 35.0287C132.445 35.0287 132.999 35.5314 133.05 36.6214H135.737C135.737 34.2404 134.075 32.8149 131.74 32.8149C130.548 32.8149 129.44 32.932 128.499 33.7872C127.223 34.9612 127.223 36.5212 127.223 37.6113L127.223 40.9481Z" fill="white"/>
<path id="Vector_4" d="M19.7581 59.1865H28.4232V56.8888H22.4789V53.9876H26.2904V51.7406H22.4449V49.1244H28.037V46.8774H19.7581L19.7581 59.1865ZM43.8328 48.8395C42.8248 47.3632 41.5491 46.6257 39.7354 46.6257C37.1996 46.6257 35.722 48.0845 35.722 50.1135C35.722 52.5458 37.3337 53.3671 39.1976 54.0884C41.0451 54.8096 41.5491 55.0106 41.5491 55.9334C41.5491 57.0566 40.4909 57.3251 39.9034 57.3251C38.8452 57.3251 38.0221 56.6878 37.5689 55.648L35.47 57.0397C36.5784 59.0187 37.8548 59.5419 40.0207 59.5419C40.642 59.5419 41.6663 59.3571 42.3885 58.9185C44.1351 57.8618 44.1351 56.2184 44.1351 55.6648C44.1351 54.5079 43.5977 53.7027 43.4467 53.5012C42.9596 52.8306 42.0863 52.3273 41.3472 52.0593L39.7856 51.4889C39.0301 51.2204 38.224 50.8685 38.224 49.9965C38.224 49.8624 38.2572 48.8057 39.6684 48.8057C40.6251 48.8057 41.4143 49.4429 41.8004 50.1811L43.8328 48.8395ZM59.2757 48.8395C58.2678 47.3632 56.992 46.6257 55.1784 46.6257C52.6425 46.6257 51.1649 48.0845 51.1649 50.1135C51.1649 52.5458 52.7768 53.3671 54.6405 54.0884C56.488 54.8096 56.992 55.0106 56.992 55.9334C56.992 57.0566 55.9337 57.3251 55.3464 57.3251C54.2881 57.3251 53.4651 56.6878 53.0117 55.648L50.9129 57.0397C52.0213 59.0187 53.2977 59.5419 55.4636 59.5419C56.0848 59.5419 57.1092 59.3571 57.8315 58.9185C59.578 57.8618 59.578 56.2184 59.578 55.6648C59.578 54.5079 59.0407 53.7027 58.8896 53.5012C58.4025 52.8306 57.5292 52.3273 56.7901 52.0593L55.2285 51.4889C54.473 51.2204 53.6669 50.8685 53.6669 49.9965C53.6669 49.8624 53.7001 48.8057 55.1113 48.8057C56.068 48.8057 56.8572 49.4429 57.2434 50.1811L59.2757 48.8395ZM67.0273 59.1865H75.6924V56.8888H69.7481V53.9876H73.5596V51.7406H69.7142V49.1244H75.3061V46.8774H67.0273L67.0273 59.1865ZM83.5453 59.1865H86.0304V53.4173C86.0304 53.0992 85.9633 51.5391 85.9464 51.1872H86.0304C86.6685 52.6797 86.6854 52.7299 86.9538 53.2162L90.2288 59.1865H92.4455V46.8774H89.9599V51.4552C89.9599 51.9247 89.9599 52.0255 90.0105 52.8644L90.0777 54.1053H89.9937C89.9429 54.0214 89.7756 53.5687 89.7248 53.4679C89.6075 53.2162 89.4395 52.8808 89.3047 52.6291L86.1313 46.8774H83.5453L83.5453 59.1865Z" fill="white"/>
</g>
</g>
</g>
</g>
</g>
</g>
<defs>
<clipPath id="clip0_0_1">
<rect width="1168" height="3708" fill="white" transform="translate(-463 -3343)"/>
</clipPath>
<clipPath id="clip1_0_1">
<rect width="243" height="73" fill="white" transform="translate(0.5)"/>
</clipPath>
</defs>
</svg>
