<svg xmlns="http://www.w3.org/2000/svg" xml:space="preserve" width="277.78" height="171.26"><path d="M61.429 49.251c.04-.37.07-.75.07-1.13 0-.21 0-.46-.02-.74 3.27-.05 6.13-2.4 6.13-5.11 0-1.38-.9-2.42-1.4-3.04.11-.02.23-.05.34-.08.48.42 1.84 1.9 1.84 3.76 0 3.25-3.25 6.26-6.95 6.33m-3.3-11.3c-.06-.36-.2-.69-.41-.97.01-.33.15-.65.68-.39-.29.3-.07.82-.07.82s.59-.27.47-.66c.88.21.25 1.39-.67 1.2m-.76 1.67c-.12-.49-.37-.98-.68-1.36-.29-.34-.77-.75-1.41-.75-.29 0-.79.14-1.1.27-.12-.21-.34-.73-.34-.96s.4-.48 1.17-.48c1.69 0 2.7.76 2.7 2.05 0 .45-.18.86-.34 1.22m4.35 21.81c.2 0 .29.03.41.07.49 1.32 2.36 3.82 2.44 3.93l.02.02h.03c.46-.08 1.64-.26 2.62-.26h.02c.11 0 .23 0 .3.08.06.06.1.18.1.33 0 .24-.1.66-.23.84-.34-.38-.9-.54-1.8-.54-.27 0-.59.08-.76.13h-.07l-.08.04.52.52c.8.8 1.49 1.48 1.49 1.94 0 .28-.27.63-.51.79-.05-.84-.9-1.96-1.72-2.59l-.07-.05v.3c-.02.2-.04.5-.04.82 0 1.6-.16 1.84-.71 1.84-.09 0-.21-.02-.3-.05.31-.39.43-.89.43-1.79v-.74c0-.37.04-.64.07-.85l.02-.12h-.09c-.26-.05-.74-.11-1.11-.11-.79 0-1.32.07-1.71.44-.26-.21-.52-.56-.52-.79 0-.33.21-.36.48-.36.14 0 .27.02.44.04.34.05.85.13 1.9.13h.07l-.02-.06c-.27-.76-1-1.87-2.17-3.3.1-.38.21-.63.58-.63m-10.15 3.91-.02.06h.07c1.05 0 1.56-.08 1.9-.13.18-.02.3-.04.44-.04.27 0 .48.03.48.36 0 .22-.26.58-.52.79-.39-.36-.92-.44-1.71-.44-.37 0-.85.07-1.11.1h-.04l-.05.01v.12c.05.22.08.49.08.85v.74c0 .89.12 1.4.44 1.79-.08.03-.21.05-.3.05-.55 0-.71-.24-.71-1.84 0-.32-.02-.62-.03-.82l-.02-.3-.07.05c-.82.63-1.67 1.75-1.72 2.59-.25-.16-.52-.52-.52-.79 0-.46.69-1.14 1.49-1.94l.52-.52-.15-.04c-.17-.05-.49-.13-.76-.13-.89 0-1.45.17-1.8.54-.12-.18-.23-.6-.23-.84 0-.16.03-.27.1-.33.08-.08.2-.08.3-.08h.02c.98 0 2.16.18 2.62.25h.03l.02-.02c.08-.11 1.96-2.61 2.44-3.93.11-.04.21-.07.4-.07.37 0 .47.25.58.63-1.17 1.42-1.9 2.53-2.17 3.3m-5.07-22.39c0-1.87 1.36-3.35 1.84-3.76.11.03.23.05.34.08-.51.62-1.41 1.66-1.41 3.04 0 2.73 2.92 5.11 6.23 5.11a10.02 10.02 0 0 0 .03 1.86c-3.74-.02-7.03-3.06-7.03-6.33m25.09 5.76c1.68 2.65 2.99 2.61 4.98 2.61-1.64-1.26-2.73-2.87-3.24-3.69l-3.07-4.9a7.283 7.283 0 0 0-2.26-3.99c.4-.15.72-.31.92-.46-2 0-3.99-1.02-5.08-1.02-.7 0-1.15.42-1.15.97.04.62.68 1.25 1.86 1.25.27 0 .61-.03.98-.1.64.89 1.15 1.69 1.15 2.83 0 2.15-2.57 3.82-5.16 3.82-.15 0-.29 0-.43-.02-.23-.53-1.02-1.43-1.02-2.44 0-1.71 1.11-3.1 1.11-4.79 0-1.05-.51-1.7-.71-1.97.32-.3.67-.66.75-.91-.19.08-.4.09-.72.09-1.24 0-2.26-.32-3.24-.32-.56 0-.71.17-.71.34 0 .06 0 .12.02.15-.21-.08-.41-.14-.64-.18-.29-.06-.6-.08-.94-.08-1.2 0-1.63.5-1.63.93 0 .36.29 1.03.61 1.54.47-.24 1.03-.4 1.29-.4.64 0 1.2.61 1.5 1.32-.43.05-.51.07-.94.07-1.17 0-1.96-.42-2.13-.42-.01 0-.05 0-.05.03 0 .16.33.6.98.83.86.31 2.15.45 2.36.48 0 .04-.22.44-.46.52-.05.02-.09.02-.15 0-.9-.18-1.15-.25-2.29-.69-.03-.01-.06 0-.06.04 0 .45 1.17 1.45 2.21 1.83-.87 1.11-1.96 2.26-2.48 4-.15 0-.29.02-.43.02-2.59 0-5.16-1.67-5.16-3.82 0-1.14.51-1.95 1.15-2.83.37.06.71.1.98.1 1.18 0 1.81-.63 1.86-1.25 0-.55-.45-.97-1.15-.97-1.09 0-3.07 1.02-5.08 1.02.2.15.53.31.92.46a7.2 7.2 0 0 0-2.25 3.99l-3.07 4.9c-.52.82-1.6 2.43-3.25 3.69 1.98 0 3.3.04 4.98-2.61l1.57-2.51c.12.33.26.64.43.96l-3.13 5c-.52.83-1.6 2.43-3.25 3.69 1.98 0 3.3.05 4.98-2.61l2.69-4.31c.2.21.41.42.64.62l-3.8 6.08c-.52.83-1.59 2.42-3.24 3.69 1.98 0 3.3.05 4.98-2.61l3.7-5.93c.24.15.49.3.75.44l-4.52 7.23c-.52.83-1.59 2.42-3.24 3.69 1.98 0 3.3.05 4.98-2.61l4.65-7.45c.28.1.55.21.84.3l-5.26 8.41c-.51.82-1.61 2.44-3.24 3.69 1.98 0 3.3.05 4.98-2.61l5.6-8.97c.06 0 .11.02.17.03.15.49.26.94.26 1.39 0 2.82-1.85 5.31-4.07 7.23.14.06.39.08.62.08.46 0 .75-.02.96-.06-.51 1.17-1.62 2.68-2.18 3.46-.73-.13-1.78-.23-2.48-.23s-.81.42-.81.8c0 .66.31 1.18.67 1.47.13-.34.4-.79 1.74-.79h.13c-.39.43-1.61 1.42-1.61 2.22 0 .53.58 1.32 1.34 1.32-.04-.17-.04-.33-.04-.44 0-.65.57-1.4 1.06-1.93-.01.16 0 .14 0 .32 0 1.53.14 2.23 1.11 2.23.48 0 .8-.26.92-.34-.63-.58-.66-1.03-.66-1.89v-.74c0-.2 0-.46-.03-.64.35-.05.49-.05.75-.05 0 0 1.38-.11 1.71.61.37-.34.92-.83.92-1.36 0-.35-.17-.75-.88-.75-.27 0-1.11.16-1.82.16.19-.42 1.03-1.66 1.77-2.55.11.35.28.72.67 1.03.05-.58.39-2.4 1.29-3.47.1.72.25 1.46.25 3.02 0 3.79-.91 6.6-2.85 7.13.25.44.79.83 1.34.83.71 0 1.09-.8 1.49-1.56.2.56.77 1.92 1.34 1.92s1.13-1.37 1.34-1.92c.39.76.78 1.56 1.49 1.56.55 0 1.09-.4 1.34-.83-1.94-.53-2.85-3.34-2.85-7.13 0-1.56.14-2.3.25-3.02.9 1.07 1.24 2.89 1.29 3.47.39-.31.56-.68.67-1.03.73.9 1.58 2.13 1.77 2.55-.71 0-1.55-.16-1.82-.16-.71 0-.88.4-.88.75 0 .53.54 1.02.92 1.36.33-.72 1.71-.61 1.71-.61.27 0 .41 0 .75.05-.03.19-.03.45-.03.64v.74c0 .86-.03 1.31-.66 1.89.11.08.44.34.92.34.97 0 1.11-.7 1.11-2.23v-.32c.48.53 1.06 1.28 1.06 1.93 0 .12 0 .27-.04.44.76 0 1.34-.79 1.34-1.32 0-.8-1.22-1.79-1.62-2.22h.13c1.34 0 1.61.45 1.74.79.36-.29.67-.81.67-1.47 0-.38-.08-.8-.81-.8s-1.75.1-2.48.23c-.56-.78-1.66-2.29-2.18-3.46.21.04.5.06.96.06.23 0 .48-.02.62-.08-2.22-1.92-4.07-4.41-4.07-7.23 0-.45.11-.9.26-1.39.05-.01.11-.02.17-.03l5.6 8.97c1.68 2.65 2.99 2.61 4.98 2.61-1.63-1.25-2.73-2.87-3.24-3.69l-5.26-8.41c.29-.09.57-.19.84-.3l4.65 7.45c1.68 2.65 2.99 2.61 4.98 2.61-1.65-1.27-2.72-2.86-3.24-3.69l-4.52-7.23c.26-.14.51-.29.75-.44l3.7 5.93c1.68 2.65 2.99 2.61 4.98 2.61-1.65-1.26-2.72-2.86-3.24-3.69l-3.8-6.08c.22-.2.44-.41.63-.62l2.69 4.31c1.68 2.65 2.99 2.61 4.98 2.61-1.65-1.27-2.72-2.86-3.25-3.69l-3.12-5c.17-.31.31-.63.43-.96l1.57 2.51zm14.93-11.39h5.74v32.79h-5.74z"/><path fill="red" d="M86.559 70.081h5.74v32.79h-5.74z"/><path fill="#fc0" d="M86.559 102.861h5.74v32.79h-5.74z"/><path d="M112.447 40.281c0-2.105-1.279-3.463-4.506-3.463h-2.617v13.577h2.775c3.246 0 4.702-1.554 4.702-3.68 0-1.81-1.16-2.99-2.557-3.266v-.04c1.18-.314 2.203-1.239 2.203-3.128zm-1.731.06c0 1.554-.964 2.518-2.794 2.518h-.886v-4.683h.905c1.909 0 2.775.925 2.775 2.164zm.256 6.256c0 1.555-.866 2.381-2.873 2.381h-1.063v-4.761h1.161c1.771 0 2.775.924 2.775 2.38zm9.05 2.735h.04v1.063h1.456V40.95h-1.594v7.222c-.314.393-.944 1.042-1.908 1.042-1.063 0-1.574-.63-1.574-2.184v-6.08h-1.594v6.198c0 2.558 1.043 3.483 2.715 3.483 1.437 0 2.283-.964 2.46-1.299zm7.458-7.26c1.102 0 1.633.65 1.633 2.243v6.08h1.594v-6.198c0-2.558-1.063-3.483-2.755-3.483-1.475 0-2.322.964-2.499 1.299h-.039V40.95h-1.456v9.445h1.594v-7.28c.315-.394.964-1.043 1.928-1.043zm8.913 7.142c-1.101 0-2.085-.865-2.085-3.463 0-2.676 1.16-3.62 2.636-3.62.571 0 .945.157 1.22.334v5.825a2.11 2.11 0 0 1-1.77.924zm1.87.178h.04v1.003h1.455V36.307l-1.594.177v4.525c-.295-.118-.728-.236-1.338-.236-2.007 0-4.171 1.22-4.171 5.037 0 3.444 1.515 4.821 3.306 4.821 1.495 0 2.125-.944 2.302-1.24zm7.005-7.38c1.003 0 1.534.768 1.534 2.067 0 .295-.02.55-.04.689h-3.423c.079-1.771.807-2.755 1.929-2.755zm3.187 7.498-.59-1.122a2.744 2.744 0 0 1-1.988.826c-1.593 0-2.46-1.042-2.557-3.246h4.82c.06-.453.118-1.023.118-1.83 0-2.263-1.102-3.424-2.892-3.424-1.968 0-3.6 1.496-3.6 4.84 0 3.562 1.495 5.077 3.875 5.077 1.79 0 2.558-.846 2.814-1.121zm6.69-7.792c-.315-.315-.944-1.004-2.4-1.004-1.535 0-2.735 1.043-2.735 2.44 0 1.299.708 2.066 1.888 2.814l.59.374c.906.57 1.378.885 1.378 1.79 0 .61-.511 1.082-1.456 1.082-1.023 0-1.613-.61-1.909-.924l-.767 1.259c.374.393 1.141 1.082 2.656 1.082 1.929 0 3.01-1.16 3.01-2.656 0-1.397-.786-2.165-2.065-2.932l-.59-.354c-.847-.512-1.24-.905-1.24-1.614 0-.55.453-1.003 1.299-1.003.885 0 1.436.55 1.652.787zm5.667.413c.984 0 1.417.65 1.417 2.184v6.08h1.593v-6.336c0-.354-.02-.688-.078-.984.354-.413.944-.944 1.81-.944 1.062 0 1.633.65 1.633 2.184v6.08h1.594v-6.336c0-2.243-.984-3.345-2.873-3.345-1.22 0-2.086.728-2.499 1.26-.433-.847-1.22-1.26-2.282-1.26-1.299 0-2.106.866-2.361 1.299h-.04V40.95h-1.456v9.445h1.594v-7.28c.275-.335.885-.984 1.948-.984zm11.156-3.463c.63 0 1.063-.472 1.063-1.141 0-.65-.433-1.122-1.063-1.122-.649 0-1.082.472-1.082 1.122 0 .669.433 1.14 1.082 1.14zm.787 2.282h-1.593v9.445h1.593zm5.962 1.122c1.102 0 1.634.65 1.634 2.243v6.08h1.593v-6.198c0-2.558-1.062-3.483-2.754-3.483-1.476 0-2.322.964-2.5 1.299h-.039V40.95h-1.456v9.445h1.594v-7.28c.315-.394.964-1.043 1.928-1.043zm6.415-3.404c.63 0 1.062-.472 1.062-1.141 0-.65-.432-1.122-1.062-1.122-.65 0-1.082.472-1.082 1.122 0 .669.433 1.14 1.082 1.14zm.787 2.282h-1.594v9.445h1.594zm7.202.768c-.315-.315-.945-1.004-2.401-1.004-1.535 0-2.735 1.043-2.735 2.44 0 1.299.708 2.066 1.889 2.814l.59.374c.905.57 1.378.885 1.378 1.79 0 .61-.512 1.082-1.456 1.082-1.024 0-1.614-.61-1.91-.924l-.766 1.259c.373.393 1.14 1.082 2.656 1.082 1.928 0 3.01-1.16 3.01-2.656 0-1.397-.787-2.165-2.066-2.932l-.59-.354c-.846-.512-1.24-.905-1.24-1.614 0-.55.453-1.003 1.299-1.003.885 0 1.436.55 1.653.787zm6.414 8.5-.216-1.28a1.894 1.894 0 0 1-.984.276c-.807 0-1.122-.393-1.122-1.731v-5.234h2.066l.197-1.299h-2.263v-2.636h-1.416l-.178 2.636-1.14.236v1.063h1.14v5.45c0 2.086.827 2.932 2.44 2.932.846 0 1.338-.315 1.476-.413zm4.486-8.205c1.004 0 1.535.767 1.535 2.066 0 .295-.02.55-.04.689h-3.423c.079-1.771.807-2.755 1.928-2.755zm3.188 7.497-.59-1.122a2.744 2.744 0 0 1-1.988.826c-1.594 0-2.46-1.042-2.558-3.246h4.821c.059-.453.118-1.023.118-1.83 0-2.263-1.102-3.424-2.892-3.424-1.968 0-3.601 1.496-3.601 4.84 0 3.562 1.495 5.077 3.876 5.077 1.79 0 2.558-.846 2.814-1.121zm6.277-8.58c-.158-.058-.414-.157-.866-.157-1.2 0-1.712.709-1.987 1.456h-.04V40.95h-1.456v9.445h1.594v-6.926c.236-.63.767-1.28 1.77-1.28.434 0 .71.119.788.158zm2.184-2.262c.63 0 1.062-.472 1.062-1.141 0-.65-.433-1.122-1.062-1.122-.65 0-1.083.472-1.083 1.122 0 .669.433 1.14 1.083 1.14zm.787 2.282h-1.594v9.445h1.594zm7.555 8.382h.04v1.063h1.456V40.95h-1.594v7.222c-.315.393-.944 1.042-1.909 1.042-1.062 0-1.574-.63-1.574-2.184v-6.08h-1.593v6.198c0 2.558 1.042 3.483 2.715 3.483 1.436 0 2.282-.964 2.46-1.299zm7.478-7.201c.983 0 1.416.65 1.416 2.184v6.08h1.594v-6.336c0-.354-.02-.688-.079-.984.354-.413.945-.944 1.81-.944 1.063 0 1.634.65 1.634 2.184v6.08h1.593v-6.336c0-2.243-.983-3.345-2.872-3.345-1.22 0-2.086.728-2.5 1.26-.432-.847-1.22-1.26-2.282-1.26-1.298 0-2.105.866-2.36 1.299h-.04V40.95h-1.456v9.445h1.594v-7.28c.275-.335.885-.984 1.948-.984zM108.965 61.925l.196-1.298h-2.125v-1.692c0-1.24.413-1.653 1.161-1.653.413 0 .709.157.866.256l.334-1.319a2.69 2.69 0 0 0-1.338-.354c-1.397 0-2.617.826-2.617 2.892v1.89l-1.14.216v1.062h1.14v8.146h1.594v-8.146zm7.3-4.014c0-.61-.414-1.003-.945-1.003s-.944.393-.944 1.003.413 1.004.944 1.004.945-.394.945-1.004zm-3.03 0c0-.61-.414-1.003-.945-1.003s-.945.393-.945 1.003.414 1.004.945 1.004.944-.394.944-1.004zm2.42 11.098h.039v1.062h1.456v-9.444h-1.594v7.221c-.315.393-.944 1.043-1.908 1.043-1.063 0-1.575-.63-1.575-2.184v-6.08h-1.593v6.198c0 2.558 1.043 3.483 2.715 3.483 1.436 0 2.282-.965 2.46-1.3zm8.283-8.402c-.157-.059-.413-.157-.865-.157-1.2 0-1.712.708-1.988 1.456h-.04v-1.28h-1.455v9.445h1.594v-6.926c.236-.63.767-1.279 1.77-1.279.433 0 .709.118.788.158zm11.964-4.112-2.696 9.031c-.295.984-.57 1.968-.59 2.558h-.04c-.02-.59-.275-1.574-.57-2.578l-2.598-9.011h-1.85l4.29 13.576h1.358l4.407-13.576zm5.273 5.194c1.003 0 1.535.768 1.535 2.066 0 .295-.02.551-.04.689h-3.423c.078-1.77.806-2.755 1.928-2.755zm3.187 7.497-.59-1.122a2.744 2.744 0 0 1-1.987.827c-1.594 0-2.46-1.043-2.558-3.247h4.82c.06-.452.119-1.023.119-1.83 0-2.262-1.102-3.423-2.893-3.423-1.967 0-3.6 1.495-3.6 4.84 0 3.561 1.495 5.077 3.876 5.077 1.79 0 2.558-.847 2.813-1.122zm6.277-8.579c-.157-.059-.413-.157-.866-.157-1.2 0-1.711.708-1.987 1.456h-.04v-1.28h-1.455v9.445h1.593v-6.926c.237-.63.768-1.279 1.771-1.279.433 0 .709.118.787.158zm8.068.02h-1.89l-2.538 3.68h-.669v-8.324l-1.593.177v13.911h1.593v-4.407h.65l2.656 4.407h1.909l-3.247-5.115zm4.23 1.062c1.003 0 1.535.768 1.535 2.066 0 .295-.02.551-.04.689h-3.423c.078-1.77.806-2.755 1.928-2.755zm3.188 7.497-.59-1.122a2.744 2.744 0 0 1-1.988.827c-1.594 0-2.46-1.043-2.558-3.247h4.82c.06-.452.119-1.023.119-1.83 0-2.262-1.102-3.423-2.893-3.423-1.967 0-3.6 1.495-3.6 4.84 0 3.561 1.495 5.077 3.876 5.077 1.79 0 2.558-.847 2.814-1.122zm5.45-7.438c1.102 0 1.633.65 1.633 2.243v6.08h1.594v-6.198c0-2.499-1.043-3.482-2.696-3.482-1.515 0-2.223.905-2.42 1.2h-.04v-5.608l-1.593.177v13.911h1.594v-7.28c.314-.393.964-1.043 1.928-1.043zm9.956-1.14c-.157-.06-.413-.158-.866-.158-1.2 0-1.711.708-1.987 1.456h-.04v-1.28h-1.455v9.445h1.593v-6.926c.237-.63.768-1.279 1.771-1.279.433 0 .709.118.787.158z"/></svg>