<svg width="171" height="105" viewBox="0 0 171 105" fill="none" xmlns="http://www.w3.org/2000/svg">
  <path d="M55.515 37.15V43.15H48.145V37.15M64.765 37.15V43.15H72.135V37.15M81.385 37.15V43.15H88.755V37.15M48.145 52.05V58.05H55.515V52.05M64.765 52.05V58.05H72.135V52.05M56.515 15.28H64.225M48.055 15.28H42.725C40.735 15.28 39.125 16.89 39.125 18.88V66.3C39.125 68.29 40.735 69.9 42.725 69.9H72.835M97.785 41.31V18.89C97.785 16.9 96.175 15.29 94.185 15.29H89.245M73.465 15.29H80.015M105.485 56.3V74.42H118.165M56.415 19.14V10.76C56.415 8.68999 54.735 6.99999 52.655 6.99999H51.905C49.835 6.99999 48.145 8.67999 48.145 10.76V19.14C48.145 21.21 49.825 22.9 51.905 22.9H52.655C54.725 22.9 56.415 21.22 56.415 19.14ZM72.585 19.14V10.76C72.585 8.68999 70.905 6.99999 68.825 6.99999H68.075C66.005 6.99999 64.315 8.67999 64.315 10.76V19.14C64.315 21.21 65.995 22.9 68.075 22.9H68.825C70.895 22.9 72.585 21.22 72.585 19.14ZM88.755 19.14V10.76C88.755 8.68999 87.075 6.99999 84.995 6.99999H84.245C82.175 6.99999 80.485 8.67999 80.485 10.76V19.14C80.485 21.21 82.165 22.9 84.245 22.9H84.995C87.065 22.9 88.755 21.22 88.755 19.14ZM105.485 47.18C91.315 47.18 79.825 58.67 79.825 72.84C79.825 87.01 91.315 98.5 105.485 98.5C119.655 98.5 131.145 87.01 131.145 72.84C131.145 58.67 119.655 47.18 105.485 47.18Z" stroke="white" stroke-width="2.53" stroke-linecap="round" stroke-linejoin="round"/>
</svg>

