<svg width="171" height="105" viewBox="0 0 171 105" fill="none" xmlns="http://www.w3.org/2000/svg">
  <path d="M86.785 56.47L103.215 67.1C104.785 68.12 105.235 70.22 104.225 71.79C103.205 73.36 101.105 73.81 99.535 72.8L83.175 62.22M76.005 65.64L92.985 76.62C94.555 77.64 96.655 77.19 97.675 75.61C98.695 74.04 98.245 71.94 96.665 70.92L83.115 62.15M44.215 60.6H57.815L73.855 72.37L85.225 79.72C86.795 80.74 88.895 80.29 89.915 78.71C90.935 77.14 90.485 75.04 88.905 74.02L75.975 65.65M96.675 54.44L101.295 53.45M126.755 38.41H104.825L82.505 33.15L66.875 47.47C73.075 52.95 78.935 48.14 81.785 45.31L108.925 62.71C110.495 63.73 110.945 65.83 109.935 67.4C108.915 68.97 106.815 69.42 105.245 68.41L86.845 56.51M74.195 40.37L61.845 38.42H45.245M128.305 59.76H113.955L110.135 63.37M118.325 23.2C110.395 14.49 98.955 9 86.225 9C62.285 9 42.875 28.41 42.875 52.35C42.875 55.17 43.145 57.93 43.655 60.6M50.135 76.37C57.905 88.02 71.165 95.69 86.225 95.69C110.165 95.69 129.575 76.28 129.575 52.34C129.575 47.47 128.775 42.79 127.295 38.43" stroke="white" stroke-width="2.53" stroke-linecap="round" stroke-linejoin="round"/>
</svg>

