<svg width="171" height="105" viewBox="0 0 171 105" fill="none" xmlns="http://www.w3.org/2000/svg">
  <path d="M49.815 88.6338L73.075 99.7438C79.815 102.964 87.755 102.364 93.945 98.1738L135.405 68.3438C137.505 66.9238 138.075 64.0738 136.685 61.9538C135.345 59.9138 132.665 59.2638 130.545 60.4638L113.425 70.6338M76.905 82.8138L103.685 77.8438C106.125 77.3938 107.815 75.1338 107.555 72.6538C107.285 70.0538 104.985 68.1438 102.385 68.3738L90.615 69.5238C84.925 69.9838 79.245 68.5738 74.425 65.5138L72.965 64.5838C69.665 62.4938 65.845 61.3838 61.945 61.3838H49.335M104.495 29.8338C106.945 22.6738 105.275 14.4138 99.515 8.77375C91.545 0.953754 78.755 1.09375 70.965 9.09375C63.175 17.0938 63.305 29.9138 71.275 37.7338C77.965 44.2938 88.035 45.2538 95.715 40.6738M43.075 94.0138H39.305C36.035 94.0138 33.375 91.3638 33.375 88.0838V62.0638C33.375 58.7938 36.025 56.1338 39.305 56.1338H43.075C46.345 56.1338 49.005 58.7838 49.005 62.0638V88.0838C49.005 91.3538 46.355 94.0138 43.075 94.0138Z" stroke="white" stroke-width="2.2" stroke-linecap="round" stroke-linejoin="round"/>
  <path d="M83.465 29.5237C84.225 30.2437 85.295 30.6037 86.665 30.6037C87.375 30.6037 88.005 30.5037 88.575 30.3137C89.145 30.1237 89.775 29.8437 90.465 29.4837V31.4337C89.795 31.7637 89.135 32.0137 88.485 32.1937C87.835 32.3637 87.115 32.4537 86.315 32.4537C84.455 32.4537 82.945 31.9137 81.785 30.8337C80.625 29.7537 79.885 28.1837 79.565 26.1137H77.205L77.585 24.5637H79.485V22.0337H77.205L77.585 20.4837H79.595C80.015 18.4137 80.825 16.8137 82.055 15.6837C83.275 14.5537 84.735 13.9837 86.435 13.9837C88.135 13.9837 89.795 14.4637 91.295 15.4337L90.395 17.0037C89.705 16.5837 89.075 16.2837 88.505 16.1037C87.935 15.9237 87.275 15.8337 86.535 15.8337C85.395 15.8337 84.445 16.2137 83.675 16.9737C82.905 17.7337 82.355 18.9037 82.035 20.4837H89.065L88.685 22.0337H81.905V24.5637H88.175L87.825 26.1137H81.995C82.225 27.6737 82.725 28.8037 83.485 29.5237H83.465Z" fill="white" stroke-width="2.2" stroke-linecap="round" stroke-linejoin="round"/>
</svg>

