<?xml version="1.0" encoding="UTF-8"?>
<svg xmlns="http://www.w3.org/2000/svg" width="1200px" height="389px" version="1.1" style="shape-rendering:geometricPrecision; text-rendering:geometricPrecision; image-rendering:optimizeQuality; fill-rule:evenodd; clip-rule:evenodd" viewBox="0 0 910.28 295.08">
 <defs>
  <style type="text/css">
   <![CDATA[
    .fil0 {fill:#0B507E}
   ]]>
  </style>
 </defs>
 <g>
    <path class="fil0" d="M161.29 73.19c3.38,-1.22 5.23,-4.39 7.8,-6.52 13.02,-10.8 32.62,-17.8 48.43,-8.81 7.81,4.44 7.13,7.76 11.57,14.19 4.27,-1.94 9.04,-10.79 25.11,-15.64 17.48,-5.29 23.99,-1.41 35.46,1.65 -2.55,-6.6 -21.83,-20.43 -28.85,-24.59 -38,-22.55 -84.8,-29.11 -129.31,-20.95 -49.23,9.04 -106.56,44.5 -109.64,98.96 -5.4,95.19 134.34,145.33 231.39,94.78 4.94,-2.57 27.88,-16.36 29.67,-21.82l-25.32 0.01c-0.2,-6.53 7.27,-48.87 8.9,-59.16 2.72,-17.2 11.26,-49.12 -16.45,-43.55 -4.41,0.88 -8.32,2.63 -12.21,5.12 -7.67,4.9 -6.26,5.47 -6.64,9.95 -2.02,23.3 -9.44,62.03 -13.17,87.16 -4.41,1.17 -26.31,0.58 -32.23,0.41 0.07,-8.13 3.68,-24.52 5.06,-32.84 1.83,-11.08 3.21,-21.88 5.19,-32.93 1.52,-8.54 4.72,-25.63 -0.9,-33.06 -6.06,-8 -20.97,-3.42 -27.4,1 -6.19,4.27 -6.65,3.31 -7.83,11.24l-12.76 82.07c-0.7,4.94 -0.17,4.65 -5.22,4.67l-27.5 -0.16c-0.13,-7.8 19.4,-125.56 20.05,-126.45 1.56,-1.26 -0.31,-0.55 2.79,-0.87l26.31 0.25 -2.3 15.89z"/>
    <path class="fil0" d="M756.6 0l-35.54 0c-2.78,24.43 -9.68,60.68 -13.92,87.47l-3.44 21.75c-0.2,1.54 -0.13,2.16 -0.63,3.61l-1.29 2.59 -53.19 -115.42 -30.98 0c-1.69,15.15 -4.85,31.69 -7.27,46.82 -2.31,14.42 -21.83,134.18 -21.26,137.79 4.99,0.43 32.62,1.04 34.91,-0.51 2.32,-2.09 16.48,-111.32 19.28,-115.78 2.38,3.36 11.01,23.19 13.66,28.8 4.83,10.21 8.99,19.41 13.37,29 6.23,13.66 20.94,46.98 26.82,58.05 5.16,1.39 24.09,0.57 30.53,0.52l28.95 -184.69z"/>
    <path class="fil0" d="M812.35 28.82c20.3,-1.07 40.52,2.99 51.87,15.74 17.44,19.61 12.2,73.81 -18.62,97.07 -15.1,11.4 -30.37,13.58 -53.43,14.01l20.18 -126.82zm97.93 60.84l0 -33.47c-1.13,-0.96 -3.11,-10.89 -3.81,-12.94 -1.45,-4.23 -2.94,-7.2 -5.08,-10.84 -3.87,-6.57 -8.43,-11.57 -15.23,-16.61 -19.75,-14.63 -43.98,-13.64 -48.62,-15.8l-56.84 0 -28.94 184.48c9.72,1.15 52.42,0.2 62.89,-1.06 41.89,-5.05 76.79,-28.44 89.88,-68.76 1.35,-4.17 2.45,-8.1 3.35,-12.44 0.81,-3.89 0.79,-9.39 2.4,-12.56z"/>
    <path class="fil0" d="M595.71 0l-34.2 0c-2.36,22.25 -10.44,66.38 -14.26,91.59 -4.25,28.07 -8.63,62.25 -38.98,66.05 -43.92,5.51 -35.37,-36.84 -30.07,-67.01 2.85,-16.2 13.1,-77.56 14.35,-90.63l-35.85 0c-1.02,9.59 -3.06,20.54 -4.73,30.27 -4.55,26.49 -10.8,64.39 -13.26,90.06 -2.06,21.45 2.45,41.49 14.68,53.63 11.36,11.27 33.88,16.33 54.51,13.5 71.3,-9.79 68.93,-76.9 78.47,-128.59l9.34 -58.87z"/>
    <path class="fil0" d="M441.63 0l-104.56 0 -28.77 184.73 35.73 -0.06c1.11,-7.32 10.73,-70.35 11.99,-72.07 1.37,-1.2 -0.87,-0.1 1.48,-0.71l60.22 -0.18 4.42 -28.89 -62.03 -0.25 8.5 -53.86 66.61 -0.18 6.41 -28.53z"/>
    <path class="fil0" d="M32.91 244.26c2.11,12.18 16.45,19.14 30.81,17.99 12.12,-0.96 25.69,-11.1 22.99,-25.17 -5.36,-27.95 -58.96,-22.71 -53.8,7.18z"/>
    <path class="fil0" d="M0 275.57l0 19.51 24.37 0c4.51,-3.24 9.69,-2.97 12.34,-10.34 4.66,-12.92 -10,-22.93 -23.78,-19.28 -2.75,0.73 -5.53,1.96 -7.65,3.8l-4.23 4.89c-0.07,0.11 -0.34,1.72 -0.69,0.94 -0.06,-0.13 -0.23,0.32 -0.36,0.48z"/>
 </g>
</svg>
