<svg width="226" height="53" viewBox="0 0 226 53" fill="none" xmlns="http://www.w3.org/2000/svg">
<g clip-path="url(#clip0_1_19)">
<path d="M68.6874 11.9728H50.1257C48.0304 11.9728 46.0593 12.7973 44.5772 14.2916L34.7507 24.1996C34.1046 24.8511 33.2103 25.2228 32.2977 25.2228H5.15053C5.09942 25.2228 5.05197 25.2265 5.00452 25.2302L7.23484 30.0076H32.2977C34.4915 30.0076 36.5539 29.1463 38.1053 27.5821L47.9319 17.674C48.5195 17.0815 49.2971 16.7576 50.1257 16.7576H70.9213L68.6874 11.9728Z" fill="url(#paint0_linear_1_19)"/>
<path d="M73.3269 21.9103H53.4109C51.3157 21.9103 49.3445 22.7348 47.8625 24.2291L38.0359 34.1371C37.3898 34.7886 36.4955 35.1603 35.5829 35.1603H9.64038L11.8744 39.9451H35.5829C37.7768 39.9451 39.8392 39.0838 41.3905 37.5196L51.2171 27.6115C51.8048 27.0189 52.5823 26.6951 53.4109 26.6951H75.5609L73.3269 21.9103Z" fill="url(#paint1_linear_1_19)"/>
<path d="M28.1948 16.0104C27.6655 16.0104 27.1581 15.7969 26.7858 15.4215L21.0293 9.61729C19.8284 8.40639 18.204 7.72916 16.5066 7.72916H12.7578C11.7941 4.98715 9.09652 3.06958 5.99013 3.33826C2.88374 3.60694 0.383296 6.08028 0.0401696 9.1793C-0.401515 13.1764 2.69393 16.5625 6.57053 16.5625C9.4287 16.5625 11.8561 14.7185 12.7578 12.1458H16.3095C16.9702 12.1458 17.6017 12.4108 18.0689 12.8819L23.9203 18.7819C24.9643 19.8345 26.3843 20.4271 27.8626 20.4271H33.5826C34.0535 20.4271 34.5025 20.2394 34.8347 19.9044L38.6967 16.0104H28.1948Z" fill="url(#paint2_linear_1_19)"/>
<path d="M76.0975 36.4633C72.9911 36.1946 70.2899 38.1121 69.3299 40.8542H65.9351C65.4058 40.8542 64.8984 40.6407 64.5261 40.2653L58.5287 34.2181C57.4847 33.1655 56.0647 32.5729 54.5864 32.5729H51.0675C50.5966 32.5729 50.144 32.7643 49.8118 33.1029L45.9936 36.9896H54.0534C54.7141 36.9896 55.3456 37.2546 55.8129 37.7257L61.4233 43.3827C62.6243 44.5936 64.2487 45.2708 65.946 45.2708H69.3299C70.2315 47.8435 72.6589 49.6875 75.5171 49.6875C79.3937 49.6875 82.4855 46.3014 82.0474 42.3043C81.708 39.2053 79.1783 36.7283 76.1011 36.4633H76.0975Z" fill="url(#paint3_linear_1_19)"/>
<path d="M56.1012 41.5719C52.1005 45.8818 46.417 48.5833 40.1166 48.5833C32.9657 48.5833 26.6069 45.1089 22.6062 39.75H17.3571C21.9017 47.6669 30.3886 53 40.113 53C47.6362 53 54.4111 49.809 59.204 44.704L56.0976 41.5756L56.1012 41.5719Z" fill="url(#paint4_linear_1_19)"/>
<path d="M64.3253 36.8313C65.6576 33.6587 66.3986 30.1658 66.3986 26.5H62.0183C62.0183 28.9071 61.6277 31.2222 60.9196 33.3937L64.3253 36.8276V36.8313Z" fill="url(#paint5_linear_1_19)"/>
<path d="M16.6088 14.6633C14.9954 17.917 14.0207 21.5497 13.8638 25.3958H18.2441C18.3719 22.7827 18.9559 20.2909 19.9123 17.9906L16.6088 14.6597V14.6633Z" fill="url(#paint6_linear_1_19)"/>
<path d="M40.1166 0C33.1518 0 26.8259 2.73465 22.128 7.19181L25.2344 10.324C29.1438 6.66181 34.3747 4.41667 40.1202 4.41667C46.7638 4.41667 52.7247 7.42 56.7436 12.1458H62.2081C57.5248 4.83993 49.3847 0 40.1166 0Z" fill="url(#paint7_linear_1_19)"/>
<path d="M112.042 35.5137H107.293L106.796 26.1688C106.599 22.8747 106.501 19.4186 106.599 16.7907L102.741 33.0551H98.1561L94.0313 16.7576C94.2284 19.9854 94.1956 23.044 94.0313 26.2681L93.5349 35.5137H88.8187L90.6001 12.4992H96.769L100.529 28.3624L104.059 12.4992H110.293L112.042 35.5137Z" fill="#4D88B5"/>
<path d="M131.37 26.7024C131.37 32.2895 128.238 36.0474 122.993 36.0474C117.747 36.0474 114.615 32.5545 114.615 26.7024C114.615 20.8504 117.747 17.3575 123.025 17.3575C128.304 17.3575 131.37 20.8504 131.37 26.7024ZM119.496 26.7024C119.496 30.7584 120.682 32.5214 122.993 32.5214C125.303 32.5214 126.49 30.7253 126.49 26.7024C126.49 22.6796 125.303 20.8835 123.025 20.8835C120.748 20.8835 119.496 22.6796 119.496 26.7024Z" fill="#4D88B5"/>
<path d="M150.83 26.7024C150.83 32.157 148.223 36.0474 143.869 36.0474C141.956 36.0474 140.372 35.1824 139.284 33.7507L139.021 35.5137H134.863V10.8687L139.547 10.335V19.7793C140.635 18.2813 142.35 17.3501 144.329 17.3501C148.45 17.3501 150.826 20.8099 150.826 26.6951L150.83 26.7024ZM145.949 26.7024C145.949 22.1128 144.628 20.8503 142.785 20.8503C141.397 20.8503 140.342 21.7815 139.55 23.1433V30.659C140.277 31.8552 141.332 32.5545 142.551 32.5545C144.562 32.5545 145.949 30.9903 145.949 26.7024Z" fill="#4D88B5"/>
<path d="M163.168 35.5468C161.813 39.8383 159.076 42.4626 153.735 42.8306L153.239 39.4372C156.703 38.9697 157.889 37.9061 158.846 35.5137H157.229L151.786 17.8875H156.765L160.262 32.4552L163.956 17.8875H168.804L163.164 35.5468H163.168Z" fill="#4D88B5"/>
<path d="M190.545 24.0745C190.545 33.4194 184.774 35.6499 179.857 35.6499H174.414V12.7347H179.163C184.967 12.7347 190.541 14.5639 190.541 24.0745H190.545ZM177.55 33.1544H180.09C183.653 33.1544 187.216 31.6233 187.216 24.0745C187.216 16.5257 183.489 15.2596 179.86 15.2596H177.55V33.1544Z" fill="#6D90AA"/>
<path d="M208.552 27.9317H197.469C197.765 31.9877 199.645 33.552 202.153 33.552C203.868 33.552 205.153 33.0845 206.672 32.0208L207.989 33.8501C206.274 35.2156 204.328 36.0437 201.919 36.0437C197.071 36.0437 194.235 32.6171 194.235 27.0631C194.235 21.5092 196.973 17.7182 201.459 17.7182C205.945 17.7182 208.617 21.0123 208.617 26.3638C208.617 26.9638 208.585 27.5269 208.552 27.9281V27.9317ZM205.617 25.4695C205.617 22.0429 204.263 20.1474 201.525 20.1474C199.214 20.1474 197.699 21.7779 197.466 25.6682H205.613V25.4695H205.617Z" fill="#6D90AA"/>
<path d="M222.339 35.6462L218.083 28.2299L213.761 35.6462H210.329L216.4 26.4006L211.023 18.1194H214.586L218.214 24.5383L221.875 18.1194H225.306L219.962 26.2681L226 35.6462H222.339Z" fill="#6D90AA"/>
</g>
<defs>
<linearGradient id="paint0_linear_1_19" x1="5.00452" y1="20.9902" x2="70.9213" y2="20.9902" gradientUnits="userSpaceOnUse">
<stop stop-color="#3574A8"/>
<stop offset="0.25" stop-color="#3472A5"/>
<stop offset="0.35" stop-color="#316D9E"/>
<stop offset="0.42" stop-color="#2E6694"/>
<stop offset="0.45" stop-color="#2F6998"/>
<stop offset="0.55" stop-color="#3270A2"/>
<stop offset="0.67" stop-color="#3473A6"/>
<stop offset="0.68" stop-color="#3677AD"/>
<stop offset="0.72" stop-color="#3A83BE"/>
<stop offset="0.77" stop-color="#3E8BCA"/>
<stop offset="0.84" stop-color="#4090D1"/>
<stop offset="1" stop-color="#4192D4"/>
</linearGradient>
<linearGradient id="paint1_linear_1_19" x1="9.64038" y1="30.9277" x2="75.5609" y2="30.9277" gradientUnits="userSpaceOnUse">
<stop stop-color="#3574A8"/>
<stop offset="0.25" stop-color="#3472A5"/>
<stop offset="0.35" stop-color="#316D9E"/>
<stop offset="0.42" stop-color="#2E6694"/>
<stop offset="0.45" stop-color="#2F6998"/>
<stop offset="0.55" stop-color="#3270A2"/>
<stop offset="0.67" stop-color="#3473A6"/>
<stop offset="0.68" stop-color="#3677AD"/>
<stop offset="0.72" stop-color="#3A83BE"/>
<stop offset="0.77" stop-color="#3E8BCA"/>
<stop offset="0.84" stop-color="#4090D1"/>
<stop offset="1" stop-color="#4192D4"/>
</linearGradient>
<linearGradient id="paint2_linear_1_19" x1="37.2913" y1="18.6052" x2="-2.54052" y2="7.55026" gradientUnits="userSpaceOnUse">
<stop stop-color="#224D73"/>
<stop offset="1" stop-color="#2D679B"/>
</linearGradient>
<linearGradient id="paint3_linear_1_19" x1="45.9936" y1="41.1302" x2="82.0876" y2="41.1302" gradientUnits="userSpaceOnUse">
<stop stop-color="#224D73"/>
<stop offset="1" stop-color="#2D679B"/>
</linearGradient>
<linearGradient id="paint4_linear_1_19" x1="20.0255" y1="34.6414" x2="42.6736" y2="45.9231" gradientUnits="userSpaceOnUse">
<stop stop-color="#224D73"/>
<stop offset="1" stop-color="#2D679B"/>
</linearGradient>
<linearGradient id="paint5_linear_1_19" x1="64.4932" y1="24.6818" x2="63.2392" y2="33.8252" gradientUnits="userSpaceOnUse">
<stop stop-color="#224D73"/>
<stop offset="1" stop-color="#2D679B"/>
</linearGradient>
<linearGradient id="paint6_linear_1_19" x1="15.9627" y1="25.9406" x2="17.743" y2="16.4905" gradientUnits="userSpaceOnUse">
<stop stop-color="#224D73"/>
<stop offset="1" stop-color="#2D679B"/>
</linearGradient>
<linearGradient id="paint7_linear_1_19" x1="55.3273" y1="20.3572" x2="42.6658" y2="9.75718" gradientUnits="userSpaceOnUse">
<stop stop-color="#224D73"/>
<stop offset="1" stop-color="#2D679B"/>
</linearGradient>
<clipPath id="clip0_1_19">
<rect width="226" height="53" fill="white"/>
</clipPath>
</defs>
</svg>
