<svg width="171" height="105" viewBox="0 0 171 105" fill="none" xmlns="http://www.w3.org/2000/svg">
  <path d="M103.105 94.75H128.245C129.745 94.75 130.965 93.53 130.965 92.03C130.965 81.75 122.635 73.42 112.355 73.42H104.925C102.715 73.42 100.595 73.7999 98.635 74.5099M35.955 74.52C33.995 73.81 31.875 73.43 29.665 73.43H22.235C11.955 73.43 3.625 81.76 3.625 92.04C3.625 93.54 4.845 94.7599 6.345 94.7599H31.485M165.845 37.76C168.295 30.62 166.625 22.39 160.865 16.76C152.895 8.95995 140.105 9.09995 132.315 17.07C124.515 25.04 124.655 37.83 132.625 45.62C139.315 52.16 149.385 53.12 157.065 48.55M82.095 46.46C82.095 54.63 75.475 61.26 67.295 61.26C59.115 61.26 52.495 54.64 52.495 46.46C52.495 38.28 59.115 31.66 67.295 31.66C75.475 31.66 82.095 38.28 82.095 46.46ZM96.085 91.25C96.085 78 85.345 67.25 72.085 67.25H62.505C49.255 67.25 38.505 77.99 38.505 91.25C38.505 93.19 40.075 94.75 42.005 94.75H92.565C94.505 94.75 96.065 93.18 96.065 91.25H96.085ZM108.645 45.42C102.305 45.42 97.175 50.56 97.175 56.89C97.175 63.22 102.315 68.36 108.645 68.36C114.975 68.36 120.115 63.22 120.115 56.89C120.115 50.56 114.975 45.42 108.645 45.42ZM14.475 56.9C14.475 63.24 19.615 68.37 25.945 68.37C32.275 68.37 37.415 63.23 37.415 56.9C37.415 50.56 32.275 45.43 25.945 45.43C19.605 45.43 14.475 50.57 14.475 56.9Z" stroke="white" stroke-width="2.53" stroke-linecap="round" stroke-linejoin="round"/>
  <path d="M144.805 37.46C145.565 38.18 146.635 38.53 148.005 38.53C148.715 38.53 149.345 38.44 149.915 38.25C150.485 38.06 151.115 37.78 151.805 37.42V39.36C151.135 39.69 150.475 39.94 149.825 40.11C149.175 40.28 148.455 40.37 147.655 40.37C145.795 40.37 144.285 39.83 143.125 38.75C141.965 37.67 141.225 36.1 140.905 34.05H138.545L138.925 32.5H140.825V29.98H138.545L138.925 28.43H140.935C141.355 26.37 142.165 24.77 143.395 23.64C144.615 22.51 146.075 21.94 147.775 21.94C149.475 21.94 151.135 22.42 152.635 23.39L151.735 24.95C151.045 24.53 150.415 24.24 149.845 24.05C149.275 23.87 148.615 23.78 147.875 23.78C146.735 23.78 145.785 24.16 145.015 24.92C144.245 25.68 143.695 26.85 143.375 28.42H150.405L150.025 29.97H143.245V32.49H149.515L149.165 34.04H143.335C143.565 35.59 144.065 36.73 144.825 37.44L144.805 37.46Z" fill="white"/>
</svg>

