<?xml version="1.0" encoding="UTF-8" standalone="no"?>
<svg xmlns="http://www.w3.org/2000/svg" version="1.1" x="0" y="0" viewBox="0, 0, 90, 36" width="90px" height="36px">
<path d="M0,0h155.5868v104.528h-155.5868z" fill="transparent"/>
<g transform="translate(0, 8.988)"><path d="M 1.992,0 V -3.564 H 4.716 V -4.392 H 1.992 v -3.06 H 4.944 L 5.016,-8.28 H 0.948 V 0 Z m 5.8919672,-5.112 c 0.612,0 0.936,0.468 0.936,1.26 0,0.18 -0.012,0.336 -0.024,0.42 h -2.088 c 0.048,-1.08 0.492,-1.68 1.176,-1.68 z m 1.944,4.572 -0.36,-0.684 c -0.132,0.132 -0.528,0.504 -1.212,0.504 -0.972,0 -1.5,-0.636 -1.56,-1.98 h 2.94 c 0.036,-0.276 0.072,-0.624 0.072,-1.116 0,-1.38 -0.672,-2.088 -1.764,-2.088 -1.2,0 -2.196,0.912 -2.196,2.952 0,2.172 0.912,3.096 2.364,3.096 1.092,0 1.56,-0.516 1.716,-0.684 z m 3.1919818,-0.18 c -0.672,0 -1.272,-0.528 -1.272,-2.112 0,-1.632 0.708,-2.208 1.608,-2.208 0.348,0 0.576,0.096 0.744,0.204 v 3.552 c -0.132,0.192 -0.468,0.564 -1.08,0.564 z m 1.14,0.108 h 0.024 V 0 h 0.888 v -8.592 l -0.972,0.108 v 2.76 c -0.18,-0.072 -0.444,-0.144 -0.816,-0.144 -1.224,0 -2.544,0.744 -2.544,3.072 0,2.1 0.924,2.94 2.016,2.94 0.912,0 1.296,-0.576 1.404,-0.756 z m 4.271992,-4.5 c 0.612,0 0.936,0.468 0.936,1.26 0,0.18 -0.012,0.336 -0.024,0.42 h -2.088 c 0.048,-1.08 0.492,-1.68 1.176,-1.68 z m 1.944,4.572 -0.36,-0.684 c -0.132,0.132 -0.528,0.504 -1.212,0.504 -0.972,0 -1.5,-0.636 -1.56,-1.98 h 2.94 c 0.036,-0.276 0.072,-0.624 0.072,-1.116 0,-1.38 -0.672,-2.088 -1.764,-2.088 -1.2,0 -2.196,0.912 -2.196,2.952 0,2.172 0.912,3.096 2.364,3.096 1.092,0 1.56,-0.516 1.716,-0.684 z m 3.827981,-5.232 c -0.096,-0.036 -0.252,-0.096 -0.528,-0.096 -0.732,0 -1.044,0.432 -1.212,0.888 h -0.024 v -0.78 h -0.888 V 0 h 0.972 v -4.224 c 0.144,-0.384 0.468,-0.78 1.08,-0.78 0.264,0 0.432,0.072 0.48,0.096 z m 3.143969,2.532 h -0.3 c -1.308,0 -2.4,0.444 -2.4,1.776 0,0.936 0.66,1.608 1.536,1.608 0.732,0 1.08,-0.492 1.212,-0.78 h 0.024 c 0.012,0.288 0.024,0.468 0.036,0.636 h 0.924 c -0.024,-0.156 -0.072,-0.708 -0.072,-1.2 v -2.628 c 0,-1.452 -0.624,-2.076 -1.8,-2.076 -0.924,0 -1.476,0.444 -1.728,0.696 l 0.408,0.648 c 0.216,-0.192 0.6,-0.516 1.176,-0.516 0.624,0 0.984,0.312 0.984,1.284 z m 0,0.72 v 1.272 c -0.12,0.18 -0.396,0.564 -0.96,0.564 -0.48,0 -0.768,-0.3 -0.768,-0.888 0,-0.636 0.492,-0.9 1.416,-0.936 z m 3.383979,-6.072 -0.972,0.108 v 7.224 c 0,1.02 0.444,1.368 1.092,1.368 0.432,0 0.684,-0.108 0.78,-0.156 l -0.084,-0.72 c -0.06,0.024 -0.18,0.072 -0.36,0.072 -0.336,0 -0.456,-0.168 -0.456,-0.648 z m 10.331984,0.312 -1.956,5.724 c -0.18,0.528 -0.336,1.056 -0.348,1.416 h -0.024 c -0.024,-0.36 -0.18,-0.9 -0.36,-1.428 l -1.956,-5.712 h -1.164 V 0 h 1.008 v -3.936 c 0,-0.996 -0.012,-1.956 -0.048,-2.328 h 0.036 c 0.072,0.36 0.36,1.284 0.672,2.22 l 1.368,4.044 h 0.828 l 1.368,-4.044 c 0.312,-0.936 0.588,-1.86 0.672,-2.22 h 0.036 c -0.036,0.348 -0.048,1.332 -0.048,2.328 V 0 h 1.008 v -8.28 z m 3.275997,1.128 c 0.384,0 0.648,-0.288 0.648,-0.696 0,-0.396 -0.264,-0.684 -0.648,-0.684 -0.396,0 -0.66,0.288 -0.66,0.684 0,0.408 0.264,0.696 0.66,0.696 z m 0.48,1.392 h -0.972 V 0 h 0.972 z m 3.635999,0.684 c 0.672,0 0.996,0.396 0.996,1.368 V 0 h 0.972 v -3.78 c 0,-1.56 -0.648,-2.124 -1.68,-2.124 -0.9,0 -1.416,0.588 -1.524,0.792 h -0.024 V -5.76 h -0.888 V 0 h 0.972 v -4.44 c 0.192,-0.24 0.588,-0.636 1.176,-0.636 z m 3.911986,-2.076 c 0.384,0 0.648,-0.288 0.648,-0.696 0,-0.396 -0.264,-0.684 -0.648,-0.684 -0.396,0 -0.66,0.288 -0.66,0.684 0,0.408 0.264,0.696 0.66,0.696 z m 0.48,1.392 h -0.972 V 0 h 0.972 z m 4.391999,0.468 c -0.192,-0.192 -0.576,-0.612 -1.464,-0.612 -0.936,0 -1.668,0.636 -1.668,1.488 0,0.792 0.432,1.26 1.152,1.716 l 0.36,0.228 c 0.552,0.348 0.84,0.54 0.84,1.092 0,0.372 -0.312,0.66 -0.888,0.66 -0.624,0 -0.984,-0.372 -1.164,-0.564 l -0.468,0.768 c 0.228,0.24 0.696,0.66 1.62,0.66 1.176,0 1.836,-0.708 1.836,-1.62 0,-0.852 -0.48,-1.32 -1.26,-1.788 l -0.36,-0.216 c -0.516,-0.312 -0.756,-0.552 -0.756,-0.984 0,-0.336 0.276,-0.612 0.792,-0.612 0.54,0 0.876,0.336 1.008,0.48 z m 3.911982,5.184 -0.132,-0.78 c -0.096,0.06 -0.312,0.168 -0.6,0.168 -0.492,0 -0.684,-0.24 -0.684,-1.056 v -3.192 h 1.26 l 0.12,-0.792 h -1.38 v -1.608 h -0.864 l -0.108,1.608 -0.696,0.144 v 0.648 h 0.696 v 3.324 c 0,1.272 0.504,1.788 1.488,1.788 0.516,0 0.816,-0.192 0.9,-0.252 z m 3.599987,-5.664 c -0.096,-0.036 -0.252,-0.096 -0.528,-0.096 -0.732,0 -1.044,0.432 -1.212,0.888 h -0.024 v -0.78 h -0.888 V 0 h 0.972 v -4.224 c 0.144,-0.384 0.468,-0.78 1.08,-0.78 0.264,0 0.432,0.072 0.48,0.096 z m 3.719982,0.012 -0.816,3.204 c -0.168,0.648 -0.312,1.224 -0.336,1.668 h -0.024 c -0.024,-0.444 -0.192,-1.032 -0.372,-1.68 l -0.9,-3.192 h -1.044 l 1.86,5.748 -0.084,0.3 c -0.252,0.888 -0.564,1.32 -1.248,1.32 -0.204,0 -0.336,-0.048 -0.408,-0.084 v 0.84 c 0.06,0.036 0.228,0.108 0.468,0.108 1.14,0 1.644,-0.732 2.064,-2.136 l 1.8,-6.096 z" style="font-size:12px;font-family:'BundesSans Cond';letter-spacing:0" transform="translate(0, 0)"/>
<path d="m 0.48,-2.88 c 0,2.16 0.972,3.024 2.244,3.024 1.26,0 2.304,-0.876 2.304,-3.024 0,-2.124 -0.972,-3.024 -2.244,-3.024 -1.236,0 -2.304,0.9 -2.304,3.024 z m 3.54,0 c 0,1.524 -0.468,2.16 -1.26,2.16 -0.792,0 -1.272,-0.636 -1.272,-2.16 0,-1.524 0.468,-2.196 1.26,-2.196 0.792,0 1.272,0.672 1.272,2.196 z m 4.5839894,-2.088 0.12,-0.792 h -1.296 v -1.032 c 0,-0.756 0.252,-1.008 0.708,-1.008 0.252,0 0.432,0.096 0.528,0.156 l 0.204,-0.804 c -0.096,-0.06 -0.408,-0.216 -0.816,-0.216 -0.852,0 -1.596,0.504 -1.596,1.764 v 1.152 l -0.696,0.132 v 0.648 h 0.696 V 0 h 0.972 V -4.968 Z M 16.48795,-8.28 h -5.532 v 0.828 h 2.208 V 0 h 1.044 v -7.452 h 2.208 z m 2.603988,2.508 c -0.096,-0.036 -0.252,-0.096 -0.528,-0.096 -0.732,0 -1.044,0.432 -1.212,0.888 h -0.024 v -0.78 h -0.888 V 0 h 0.972 v -4.224 c 0.144,-0.384 0.468,-0.78 1.08,-0.78 0.264,0 0.432,0.072 0.48,0.096 z m 3.143969,2.532 h -0.3 c -1.308,0 -2.4,0.444 -2.4,1.776 0,0.936 0.66,1.608 1.536,1.608 0.732,0 1.08,-0.492 1.212,-0.78 h 0.024 c 0.012,0.288 0.024,0.468 0.036,0.636 h 0.924 c -0.024,-0.156 -0.072,-0.708 -0.072,-1.2 v -2.628 c 0,-1.452 -0.624,-2.076 -1.8,-2.076 -0.924,0 -1.476,0.444 -1.728,0.696 l 0.408,0.648 c 0.216,-0.192 0.6,-0.516 1.176,-0.516 0.624,0 0.984,0.312 0.984,1.284 z m 0,0.72 v 1.272 c -0.12,0.18 -0.396,0.564 -0.96,0.564 -0.48,0 -0.768,-0.3 -0.768,-0.888 0,-0.636 0.492,-0.9 1.416,-0.936 z m 4.571979,-2.556 c 0.672,0 0.996,0.396 0.996,1.368 V 0 h 0.972 v -3.78 c 0,-1.56 -0.648,-2.124 -1.68,-2.124 -0.9,0 -1.416,0.588 -1.524,0.792 h -0.024 V -5.76 h -0.888 V 0 h 0.972 v -4.44 c 0.192,-0.24 0.588,-0.636 1.176,-0.636 z m 6.323985,-0.216 c -0.192,-0.192 -0.576,-0.612 -1.464,-0.612 -0.936,0 -1.668,0.636 -1.668,1.488 0,0.792 0.432,1.26 1.152,1.716 l 0.36,0.228 c 0.552,0.348 0.84,0.54 0.84,1.092 0,0.372 -0.312,0.66 -0.888,0.66 -0.624,0 -0.984,-0.372 -1.164,-0.564 l -0.468,0.768 c 0.228,0.24 0.696,0.66 1.62,0.66 1.176,0 1.836,-0.708 1.836,-1.62 0,-0.852 -0.48,-1.32 -1.26,-1.788 l -0.36,-0.216 c -0.516,-0.312 -0.756,-0.552 -0.756,-0.984 0,-0.336 0.276,-0.612 0.792,-0.612 0.54,0 0.876,0.336 1.008,0.48 z m 3.131982,4.536 c -0.396,0 -0.684,-0.12 -0.864,-0.252 v -3.54 c 0.18,-0.204 0.528,-0.528 1.128,-0.528 0.708,0 1.224,0.564 1.224,2.112 0,1.668 -0.6,2.208 -1.488,2.208 z m 0,0.864 c 1.308,0 2.496,-0.816 2.496,-3.144 0,-2.028 -0.78,-2.868 -1.968,-2.868 -0.888,0 -1.308,0.504 -1.452,0.756 h -0.024 V -5.76 h -0.888 V 2.4 h 0.972 v -2.436 c 0.18,0.072 0.468,0.144 0.864,0.144 z m 3.455992,-2.988 c 0,2.16 0.972,3.024 2.244,3.024 1.26,0 2.304,-0.876 2.304,-3.024 0,-2.124 -0.972,-3.024 -2.244,-3.024 -1.236,0 -2.304,0.9 -2.304,3.024 z m 3.54,0 c 0,1.524 -0.468,2.16 -1.26,2.16 -0.792,0 -1.272,-0.636 -1.272,-2.16 0,-1.524 0.468,-2.196 1.26,-2.196 0.792,0 1.272,0.672 1.272,2.196 z m 4.883996,-2.892 c -0.096,-0.036 -0.252,-0.096 -0.528,-0.096 -0.732,0 -1.044,0.432 -1.212,0.888 h -0.024 v -0.78 h -0.888 V 0 h 0.972 v -4.224 c 0.144,-0.384 0.468,-0.78 1.08,-0.78 0.264,0 0.432,0.072 0.48,0.096 z m 3.455981,5.664 -0.132,-0.78 c -0.096,0.06 -0.312,0.168 -0.6,0.168 -0.492,0 -0.684,-0.24 -0.684,-1.056 v -3.192 h 1.26 l 0.12,-0.792 h -1.38 v -1.608 h -0.864 l -0.108,1.608 -0.696,0.144 v 0.648 h 0.696 v 3.324 c 0,1.272 0.504,1.788 1.488,1.788 0.516,0 0.816,-0.192 0.9,-0.252 z" style="font-size:12px;font-family:'BundesSans Cond';letter-spacing:0" transform="translate(0, 12)"/>
</g></svg>
